<svg width="842" height="202" viewBox="0 0 842 202" fill="none" xmlns="http://www.w3.org/2000/svg">
<mask id="path-1-outside-1_8302_6304" maskUnits="userSpaceOnUse" x="731.867" y="35.252" width="110" height="64" fill="black">
<rect fill="white" x="731.867" y="35.252" width="110" height="64"/>
<path d="M756.925 97.0913C752.182 97.0913 747.972 96.6383 744.295 95.7324C740.618 94.8264 736.955 93.1212 733.304 90.6165V75.5088H744.136L745.335 83.2625C746.187 84.2217 747.693 85.0344 749.851 85.7005C752.009 86.34 754.367 86.6597 756.925 86.6597C758.71 86.6597 760.203 86.4466 761.402 86.0203C762.601 85.5673 763.507 84.9145 764.119 84.0619C764.732 83.2092 765.039 82.1834 765.039 80.9844C765.039 79.8386 764.746 78.8128 764.159 77.9069C763.6 77.0009 762.667 76.1483 761.362 75.3489C760.056 74.5229 758.297 73.6836 756.086 72.831C751.103 71.2323 747.013 69.6069 743.816 67.955C740.618 66.303 738.234 64.3446 736.662 62.0797C735.116 59.8149 734.344 57.0039 734.344 53.6466C734.344 50.4225 735.263 47.6115 737.101 45.2134C738.94 42.7887 741.471 40.8836 744.695 39.4981C747.919 38.1125 751.61 37.3798 755.766 37.2999C760.509 37.1933 764.706 37.6729 768.356 38.7387C772.006 39.7779 775.23 41.3632 778.028 43.4948V57.5234H767.636L765.998 49.7298C765.092 49.2768 763.8 48.8638 762.121 48.4908C760.442 48.1177 758.657 47.9312 756.765 47.9312C755.14 47.9312 753.688 48.1444 752.409 48.5707C751.157 48.997 750.157 49.6365 749.411 50.4891C748.692 51.3418 748.332 52.4076 748.332 53.6866C748.332 54.7257 748.639 55.6583 749.251 56.4843C749.864 57.2836 750.943 58.0963 752.489 58.9223C754.034 59.7216 756.192 60.6542 758.964 61.72C765.572 63.6651 770.581 66.1031 773.991 69.0341C777.429 71.9384 779.147 75.8952 779.147 80.9044C779.147 84.3416 778.215 87.2726 776.349 89.6973C774.484 92.0953 771.886 93.9338 768.556 95.2128C765.225 96.4651 761.348 97.0913 756.925 97.0913ZM799.419 96.252V88.0586L805.495 86.7797V48.9304H796.502L796.142 55.2053H785.551V38.0593H839.627V55.2053H828.916L828.596 48.9304H819.523V86.7797L825.598 88.0586V96.252H799.419Z"/>
</mask>
<path d="M756.925 97.0913C752.182 97.0913 747.972 96.6383 744.295 95.7324C740.618 94.8264 736.955 93.1212 733.304 90.6165V75.5088H744.136L745.335 83.2625C746.187 84.2217 747.693 85.0344 749.851 85.7005C752.009 86.34 754.367 86.6597 756.925 86.6597C758.71 86.6597 760.203 86.4466 761.402 86.0203C762.601 85.5673 763.507 84.9145 764.119 84.0619C764.732 83.2092 765.039 82.1834 765.039 80.9844C765.039 79.8386 764.746 78.8128 764.159 77.9069C763.6 77.0009 762.667 76.1483 761.362 75.3489C760.056 74.5229 758.297 73.6836 756.086 72.831C751.103 71.2323 747.013 69.6069 743.816 67.955C740.618 66.303 738.234 64.3446 736.662 62.0797C735.116 59.8149 734.344 57.0039 734.344 53.6466C734.344 50.4225 735.263 47.6115 737.101 45.2134C738.94 42.7887 741.471 40.8836 744.695 39.4981C747.919 38.1125 751.61 37.3798 755.766 37.2999C760.509 37.1933 764.706 37.6729 768.356 38.7387C772.006 39.7779 775.23 41.3632 778.028 43.4948V57.5234H767.636L765.998 49.7298C765.092 49.2768 763.8 48.8638 762.121 48.4908C760.442 48.1177 758.657 47.9312 756.765 47.9312C755.14 47.9312 753.688 48.1444 752.409 48.5707C751.157 48.997 750.157 49.6365 749.411 50.4891C748.692 51.3418 748.332 52.4076 748.332 53.6866C748.332 54.7257 748.639 55.6583 749.251 56.4843C749.864 57.2836 750.943 58.0963 752.489 58.9223C754.034 59.7216 756.192 60.6542 758.964 61.72C765.572 63.6651 770.581 66.1031 773.991 69.0341C777.429 71.9384 779.147 75.8952 779.147 80.9044C779.147 84.3416 778.215 87.2726 776.349 89.6973C774.484 92.0953 771.886 93.9338 768.556 95.2128C765.225 96.4651 761.348 97.0913 756.925 97.0913ZM799.419 96.252V88.0586L805.495 86.7797V48.9304H796.502L796.142 55.2053H785.551V38.0593H839.627V55.2053H828.916L828.596 48.9304H819.523V86.7797L825.598 88.0586V96.252H799.419Z" fill="#DBDBDB"/>
<path d="M733.304 90.6165H731.876V91.3688L732.496 91.7944L733.304 90.6165ZM733.304 75.5088V74.0804H731.876V75.5088H733.304ZM744.136 75.5088L745.547 75.2905L745.36 74.0804H744.136V75.5088ZM745.335 83.2625L743.923 83.4808L743.987 83.8969L744.267 84.2115L745.335 83.2625ZM749.851 85.7005L749.43 87.0654L749.437 87.0678L749.445 87.0701L749.851 85.7005ZM761.402 86.0203L761.88 87.3662L761.893 87.3615L761.906 87.3565L761.402 86.0203ZM764.159 77.9069L762.944 78.6575L762.952 78.6703L762.96 78.6829L764.159 77.9069ZM761.362 75.3489L760.598 76.5561L760.607 76.5617L760.616 76.5672L761.362 75.3489ZM756.086 72.831L756.6 71.4982L756.561 71.4834L756.522 71.4708L756.086 72.831ZM736.662 62.0797L735.482 62.8849L735.488 62.8943L736.662 62.0797ZM737.101 45.2134L738.235 46.0826L738.24 46.0765L737.101 45.2134ZM744.695 39.4981L744.131 38.1857L744.695 39.4981ZM755.766 37.2999L755.794 38.7281L755.798 38.728L755.766 37.2999ZM768.356 38.7387L767.956 40.1099L767.965 40.1126L768.356 38.7387ZM778.028 43.4948H779.456V42.7874L778.894 42.3586L778.028 43.4948ZM778.028 57.5234V58.9519H779.456V57.5234H778.028ZM767.636 57.5234L766.239 57.8173L766.477 58.9519H767.636V57.5234ZM765.998 49.7298L767.396 49.4359L767.254 48.7607L766.637 48.4521L765.998 49.7298ZM752.409 48.5707L751.957 47.2155L751.949 47.2185L752.409 48.5707ZM749.411 50.4891L748.336 49.5485L748.328 49.5582L748.32 49.568L749.411 50.4891ZM749.251 56.4843L748.104 57.3354L748.111 57.3445L748.118 57.3534L749.251 56.4843ZM752.489 58.9223L751.815 60.1821L751.824 60.1866L751.833 60.1911L752.489 58.9223ZM758.964 61.72L758.451 63.0533L758.505 63.074L758.56 63.0903L758.964 61.72ZM773.991 69.0341L773.06 70.1175L773.069 70.1252L773.991 69.0341ZM776.349 89.6973L777.477 90.5743L777.482 90.5682L776.349 89.6973ZM768.556 95.2128L769.058 96.5499L769.068 96.5463L768.556 95.2128ZM756.925 95.6628C752.27 95.6628 748.178 95.2179 744.637 94.3454L743.954 97.1194C747.766 98.0587 752.095 98.5197 756.925 98.5197V95.6628ZM744.637 94.3454C741.153 93.4869 737.645 91.8622 734.113 89.4387L732.496 91.7944C736.265 94.3801 740.084 96.166 743.954 97.1194L744.637 94.3454ZM734.733 90.6165V75.5088H731.876V90.6165H734.733ZM733.304 76.9373H744.136V74.0804H733.304V76.9373ZM742.724 75.7271L743.923 83.4808L746.746 83.0442L745.547 75.2905L742.724 75.7271ZM744.267 84.2115C745.38 85.4636 747.187 86.3732 749.43 87.0654L750.272 84.3356C748.199 83.6956 746.995 82.9799 746.402 82.3135L744.267 84.2115ZM749.445 87.0701C751.752 87.7535 754.248 88.0882 756.925 88.0882V85.2313C754.486 85.2313 752.267 84.9265 750.257 84.3309L749.445 87.0701ZM756.925 88.0882C758.813 88.0882 760.479 87.8643 761.88 87.3662L760.923 84.6744C759.926 85.0289 758.608 85.2313 756.925 85.2313V88.0882ZM761.906 87.3565C763.31 86.8263 764.469 86.0226 765.279 84.8956L762.959 83.2282C762.544 83.8064 761.891 84.3083 760.897 84.684L761.906 87.3565ZM765.279 84.8956C766.091 83.7665 766.467 82.4384 766.467 80.9844H763.61C763.61 81.9283 763.374 82.652 762.959 83.2282L765.279 84.8956ZM766.467 80.9844C766.467 79.5811 766.104 78.2825 765.359 77.1309L762.96 78.6829C763.387 79.3431 763.61 80.0961 763.61 80.9844H766.467ZM765.375 77.1562C764.657 75.9949 763.526 74.9993 762.107 74.1307L760.616 76.5672C761.808 77.2973 762.542 78.007 762.944 78.6575L765.375 77.1562ZM762.125 74.1418C760.711 73.2469 758.858 72.3686 756.6 71.4982L755.572 74.1638C757.737 74.9986 759.401 75.799 760.598 76.5561L762.125 74.1418ZM756.522 71.4708C751.584 69.8865 747.575 68.2892 744.472 66.6859L743.16 69.224C746.452 70.9247 750.622 72.5781 755.649 74.1911L756.522 71.4708ZM744.472 66.6859C741.42 65.1093 739.24 63.289 737.835 61.2652L735.488 62.8943C737.228 65.4001 739.817 67.4966 743.16 69.224L744.472 66.6859ZM737.842 61.2746C736.491 59.2957 735.772 56.7818 735.772 53.6466H732.915C732.915 57.2259 733.741 60.3341 735.482 62.8849L737.842 61.2746ZM735.772 53.6466C735.772 50.7143 736.601 48.214 738.235 46.0826L735.968 44.3443C733.925 47.009 732.915 50.1307 732.915 53.6466H735.772ZM738.24 46.0765C739.907 43.8772 742.227 42.1136 745.259 40.8105L744.131 38.1857C740.715 39.6537 737.972 41.7003 735.963 44.3504L738.24 46.0765ZM745.259 40.8105C748.285 39.51 751.788 38.8051 755.794 38.7281L755.739 35.8717C751.431 35.9545 747.553 36.7151 744.131 38.1857L745.259 40.8105ZM755.798 38.728C760.429 38.6239 764.475 39.0938 767.956 40.1099L768.756 37.3675C764.936 36.252 760.588 35.7627 755.734 35.8718L755.798 38.728ZM767.965 40.1126C771.457 41.1067 774.517 42.6159 777.162 44.6311L778.894 42.3586C775.943 40.1105 772.555 38.449 768.747 37.3648L767.965 40.1126ZM776.6 43.4948V57.5234H779.456V43.4948H776.6ZM778.028 56.095H767.636V58.9519H778.028V56.095ZM769.034 57.2295L767.396 49.4359L764.6 50.0237L766.239 57.8173L769.034 57.2295ZM766.637 48.4521C765.579 47.9231 764.156 47.4797 762.431 47.0963L761.811 49.8852C763.443 50.2479 764.605 50.6305 765.359 51.0074L766.637 48.4521ZM762.431 47.0963C760.641 46.6986 758.751 46.5028 756.765 46.5028V49.3597C758.563 49.3597 760.244 49.5369 761.811 49.8852L762.431 47.0963ZM756.765 46.5028C755.017 46.5028 753.408 46.7319 751.957 47.2156L752.861 49.9259C753.967 49.5569 755.263 49.3597 756.765 49.3597V46.5028ZM751.949 47.2185C750.499 47.7119 749.273 48.4775 748.336 49.5485L750.486 51.4298C751.041 50.7955 751.814 50.2821 752.869 49.923L751.949 47.2185ZM748.32 49.568C747.351 50.7156 746.904 52.1227 746.904 53.6866H749.761C749.761 52.6925 750.033 51.9679 750.503 51.4103L748.32 49.568ZM746.904 53.6866C746.904 55.0288 747.307 56.2605 748.104 57.3354L750.399 55.6331C749.97 55.0561 749.761 54.4226 749.761 53.6866H746.904ZM748.118 57.3534C748.914 58.3922 750.204 59.3209 751.815 60.1821L753.162 57.6625C751.683 56.8717 750.814 56.175 750.385 55.6152L748.118 57.3534ZM751.833 60.1911C753.446 61.0255 755.66 61.9798 758.451 63.0533L759.476 60.3868C756.725 59.3287 754.623 58.4178 753.145 57.6535L751.833 60.1911ZM758.56 63.0903C765.067 65.0057 769.863 67.3697 773.06 70.1174L774.922 67.9507C771.299 64.8365 766.076 62.3245 759.367 60.3497L758.56 63.0903ZM773.069 70.1252C776.147 72.7253 777.719 76.2621 777.719 80.9044H780.576C780.576 75.5282 778.71 71.1515 774.913 67.943L773.069 70.1252ZM777.719 80.9044C777.719 84.0676 776.867 86.682 775.217 88.8263L777.482 90.5682C779.562 87.8632 780.576 84.6157 780.576 80.9044H777.719ZM775.222 88.8203C773.542 90.9795 771.174 92.6771 768.044 93.8793L769.068 96.5463C772.598 95.1905 775.426 93.2112 777.477 90.5743L775.222 88.8203ZM768.053 93.8757C764.917 95.0549 761.217 95.6628 756.925 95.6628V98.5197C761.48 98.5197 765.533 97.8753 769.058 96.5499L768.053 93.8757ZM799.42 96.252H797.991V97.6804H799.42V96.252ZM799.42 88.0586L799.125 86.6608L797.991 86.8996V88.0586H799.42ZM805.495 86.7797L805.789 88.1775L806.923 87.9387V86.7797H805.495ZM805.495 48.9304H806.923V47.502H805.495V48.9304ZM796.502 48.9304V47.502H795.153L795.076 48.8487L796.502 48.9304ZM796.142 55.2053V56.6338H797.491L797.568 55.2871L796.142 55.2053ZM785.551 55.2053H784.122V56.6338H785.551V55.2053ZM785.551 38.0593V36.6308H784.122V38.0593H785.551ZM839.627 38.0593H841.055V36.6308H839.627V38.0593ZM839.627 55.2053V56.6338H841.055V55.2053H839.627ZM828.916 55.2053L827.489 55.278L827.558 56.6338H828.916V55.2053ZM828.596 48.9304L830.022 48.8577L829.953 47.502H828.596V48.9304ZM819.523 48.9304V47.502H818.095V48.9304H819.523ZM819.523 86.7797H818.095V87.9387L819.229 88.1775L819.523 86.7797ZM825.598 88.0586H827.027V86.8996L825.892 86.6608L825.598 88.0586ZM825.598 96.252V97.6804H827.027V96.252H825.598ZM800.848 96.252V88.0586H797.991V96.252H800.848ZM799.714 89.4564L805.789 88.1775L805.2 85.3818L799.125 86.6608L799.714 89.4564ZM806.923 86.7797V48.9304H804.066V86.7797H806.923ZM805.495 47.502H796.502V50.3589H805.495V47.502ZM795.076 48.8487L794.716 55.1236L797.568 55.2871L797.928 49.0122L795.076 48.8487ZM796.142 53.7769H785.551V56.6338H796.142V53.7769ZM786.979 55.2053V38.0593H784.122V55.2053H786.979ZM785.551 39.4877H839.627V36.6308H785.551V39.4877ZM838.198 38.0593V55.2053H841.055V38.0593H838.198ZM839.627 53.7769H828.916V56.6338H839.627V53.7769ZM830.342 55.1326L830.022 48.8577L827.169 49.0031L827.489 55.278L830.342 55.1326ZM828.596 47.502H819.523V50.3589H828.596V47.502ZM818.095 48.9304V86.7797H820.952V48.9304H818.095ZM819.229 88.1775L825.304 89.4564L825.892 86.6608L819.817 85.3818L819.229 88.1775ZM824.17 88.0586V96.252H827.027V88.0586H824.17ZM825.598 94.8235H799.42V97.6804H825.598V94.8235Z" fill="black" mask="url(#path-1-outside-1_8302_6304)"/>
<mask id="path-3-outside-2_8302_6304" maskUnits="userSpaceOnUse" x="571.996" y="37.0352" width="153" height="144" fill="black">
<rect fill="white" x="571.996" y="37.0352" width="153" height="144"/>
<path d="M573.737 179.035V159.371L588.125 156.302V62.2021L573.737 59.1326V39.3727H588.125H622.37L678.388 128.772H678.964V62.2021L660.642 59.1326V39.3727H708.795H723.28V59.1326L708.795 62.2021V179.035H675.606L618.533 91.5543H617.957V156.302L636.374 159.371V179.035H573.737Z"/>
</mask>
<path d="M573.737 179.035V159.371L588.125 156.302V62.2021L573.737 59.1326V39.3727H588.125H622.37L678.388 128.772H678.964V62.2021L660.642 59.1326V39.3727H708.795H723.28V59.1326L708.795 62.2021V179.035H675.606L618.533 91.5543H617.957V156.302L636.374 159.371V179.035H573.737Z" fill="#DBDBDB"/>
<path d="M573.737 179.035H572.309V180.464H573.737V179.035ZM573.737 159.371L573.439 157.974L572.309 158.215V159.371H573.737ZM588.125 156.302L588.423 157.699L589.554 157.457V156.302H588.125ZM588.125 62.2021H589.554V61.0463L588.423 60.8051L588.125 62.2021ZM573.737 59.1326H572.309V60.2885L573.439 60.5296L573.737 59.1326ZM573.737 39.3727V37.9442H572.309V39.3727H573.737ZM622.37 39.3727L623.58 38.6142L623.16 37.9442H622.37V39.3727ZM678.388 128.772L677.178 129.53L677.597 130.2H678.388V128.772ZM678.964 128.772V130.2H680.392V128.772H678.964ZM678.964 62.2021H680.392V60.9931L679.2 60.7933L678.964 62.2021ZM660.642 59.1326H659.214V60.3416L660.406 60.5414L660.642 59.1326ZM660.642 39.3727V37.9442H659.214V39.3727H660.642ZM723.28 39.3727H724.708V37.9442H723.28V39.3727ZM723.28 59.1326L723.576 60.53L724.708 60.2901V59.1326H723.28ZM708.795 62.2021L708.499 60.8047L707.367 61.0447V62.2021H708.795ZM708.795 179.035V180.464H710.224V179.035H708.795ZM675.606 179.035L674.41 179.816L674.833 180.464H675.606V179.035ZM618.533 91.5543L619.729 90.7737L619.306 90.1258H618.533V91.5543ZM617.957 91.5543V90.1258H616.529V91.5543H617.957ZM617.957 156.302H616.529V157.512L617.722 157.711L617.957 156.302ZM636.374 159.371H637.803V158.161L636.609 157.962L636.374 159.371ZM636.374 179.035V180.464H637.803V179.035H636.374ZM575.166 179.035V159.371H572.309V179.035H575.166ZM574.035 160.768L588.423 157.699L587.827 154.905L573.439 157.974L574.035 160.768ZM589.554 156.302V62.2021H586.697V156.302H589.554ZM588.423 60.8051L574.035 57.7356L573.439 60.5296L587.827 63.5991L588.423 60.8051ZM575.166 59.1326V39.3727H572.309V59.1326H575.166ZM573.737 40.8011H588.125V37.9442H573.737V40.8011ZM588.125 40.8011H622.37V37.9442H588.125V40.8011ZM621.159 40.1311L677.178 129.53L679.598 128.014L623.58 38.6142L621.159 40.1311ZM678.388 130.2H678.964V127.344H678.388V130.2ZM680.392 128.772V62.2021H677.535V128.772H680.392ZM679.2 60.7933L660.878 57.7238L660.406 60.5414L678.727 63.6109L679.2 60.7933ZM662.071 59.1326V39.3727H659.214V59.1326H662.071ZM660.642 40.8011H708.795V37.9442H660.642V40.8011ZM708.795 40.8011H723.28V37.9442H708.795V40.8011ZM721.851 39.3727V59.1326H724.708V39.3727H721.851ZM722.983 57.7352L708.499 60.8047L709.091 63.5995L723.576 60.53L722.983 57.7352ZM707.367 62.2021V179.035H710.224V62.2021H707.367ZM708.795 177.607H675.606V180.464H708.795V177.607ZM676.803 178.255L619.729 90.7737L617.336 92.3348L674.41 179.816L676.803 178.255ZM618.533 90.1258H617.957V92.9827H618.533V90.1258ZM616.529 91.5543V156.302H619.386V91.5543H616.529ZM617.722 157.711L636.139 160.78L636.609 157.962L618.192 154.893L617.722 157.711ZM634.946 159.371V179.035H637.803V159.371H634.946ZM636.374 177.607H573.737V180.464H636.374V177.607Z" fill="black" mask="url(#path-3-outside-2_8302_6304)"/>
<mask id="path-5-outside-3_8302_6304" maskUnits="userSpaceOnUse" x="173.523" y="37.0352" width="202" height="144" fill="black">
<rect fill="white" x="173.523" y="37.0352" width="202" height="144"/>
<path d="M175.593 179.035V159.371L189.981 156.302V62.2021L175.593 59.1326V39.3727H189.981H241.491L275.256 131.362H275.831L308.637 39.3727H373.768V59.1326L359.284 62.2021V156.302L373.768 159.371V179.035H311.227V159.371L326.286 156.302V138.076L327.054 72.3699L326.478 72.2739L286.958 179.035H260.484L220.389 73.5209L219.717 73.6168L222.019 133.472V156.302L238.23 159.371V179.035H175.593Z"/>
</mask>
<path d="M175.593 179.035V159.371L189.981 156.302V62.2021L175.593 59.1326V39.3727H189.981H241.491L275.256 131.362H275.831L308.637 39.3727H373.768V59.1326L359.284 62.2021V156.302L373.768 159.371V179.035H311.227V159.371L326.286 156.302V138.076L327.054 72.3699L326.478 72.2739L286.958 179.035H260.484L220.389 73.5209L219.717 73.6168L222.019 133.472V156.302L238.23 159.371V179.035H175.593Z" fill="#DBDBDB"/>
<path d="M175.593 179.035H174.164V180.464H175.593V179.035ZM175.593 159.371L175.295 157.974L174.164 158.215V159.371H175.593ZM189.981 156.302L190.279 157.699L191.41 157.457V156.302H189.981ZM189.981 62.2021H191.41V61.0463L190.279 60.8051L189.981 62.2021ZM175.593 59.1326H174.164V60.2885L175.295 60.5296L175.593 59.1326ZM175.593 39.3727V37.9442H174.164V39.3727H175.593ZM241.491 39.3727L242.832 38.8805L242.489 37.9442H241.491V39.3727ZM275.256 131.362L273.915 131.854L274.259 132.79H275.256V131.362ZM275.831 131.362V132.79H276.839L277.177 131.842L275.831 131.362ZM308.637 39.3727V37.9442H307.63L307.291 38.8928L308.637 39.3727ZM373.768 39.3727H375.196V37.9442H373.768V39.3727ZM373.768 59.1326L374.064 60.53L375.196 60.2901V59.1326H373.768ZM359.284 62.2021L358.988 60.8047L357.855 61.0447V62.2021H359.284ZM359.284 156.302H357.855V157.459L358.988 157.699L359.284 156.302ZM373.768 159.371H375.196V158.214L374.064 157.974L373.768 159.371ZM373.768 179.035V180.464H375.196V179.035H373.768ZM311.227 179.035H309.798V180.464H311.227V179.035ZM311.227 159.371L310.941 157.971L309.798 158.204V159.371H311.227ZM326.286 156.302L326.572 157.701L327.715 157.468V156.302H326.286ZM326.286 138.076L324.858 138.06L324.858 138.068V138.076H326.286ZM327.054 72.3699L328.482 72.3865L328.496 71.1621L327.289 70.9608L327.054 72.3699ZM326.478 72.2739L326.713 70.8649L325.549 70.6708L325.139 71.778L326.478 72.2739ZM286.958 179.035V180.464H287.953L288.298 179.531L286.958 179.035ZM260.484 179.035L259.149 179.543L259.499 180.464H260.484V179.035ZM220.389 73.5209L221.724 73.0135L221.318 71.9452L220.187 72.1068L220.389 73.5209ZM219.717 73.6168L219.515 72.2027L218.24 72.3849L218.29 73.6717L219.717 73.6168ZM222.019 133.472H223.448V133.445L223.447 133.417L222.019 133.472ZM222.019 156.302H220.591V157.485L221.753 157.705L222.019 156.302ZM238.23 159.371H239.658V158.188L238.496 157.968L238.23 159.371ZM238.23 179.035V180.464H239.658V179.035H238.23ZM177.021 179.035V159.371H174.164V179.035H177.021ZM175.891 160.768L190.279 157.699L189.683 154.905L175.295 157.974L175.891 160.768ZM191.41 156.302V62.2021H188.553V156.302H191.41ZM190.279 60.8051L175.891 57.7356L175.295 60.5296L189.683 63.5991L190.279 60.8051ZM177.021 59.1326V39.3727H174.164V59.1326H177.021ZM175.593 40.8011H189.981V37.9442H175.593V40.8011ZM189.981 40.8011H241.491V37.9442H189.981V40.8011ZM240.15 39.8649L273.915 131.854L276.597 130.87L242.832 38.8805L240.15 39.8649ZM275.256 132.79H275.831V129.933H275.256V132.79ZM277.177 131.842L309.982 39.8525L307.291 38.8928L274.486 130.882L277.177 131.842ZM308.637 40.8011H373.768V37.9442H308.637V40.8011ZM372.339 39.3727V59.1326H375.196V39.3727H372.339ZM373.472 57.7352L358.988 60.8047L359.58 63.5995L374.064 60.53L373.472 57.7352ZM357.855 62.2021V156.302H360.712V62.2021H357.855ZM358.988 157.699L373.472 160.769L374.064 157.974L359.58 154.904L358.988 157.699ZM372.339 159.371V179.035H375.196V159.371H372.339ZM373.768 177.607H311.227V180.464H373.768V177.607ZM312.655 179.035V159.371H309.798V179.035H312.655ZM311.512 160.771L326.572 157.701L326.001 154.902L310.941 157.971L311.512 160.771ZM327.715 156.302V138.076H324.858V156.302H327.715ZM327.715 138.093L328.482 72.3865L325.625 72.3532L324.858 138.06L327.715 138.093ZM327.289 70.9608L326.713 70.8649L326.243 73.6829L326.819 73.7789L327.289 70.9608ZM325.139 71.778L285.619 178.539L288.298 179.531L327.818 72.7698L325.139 71.778ZM286.958 177.607H260.484V180.464H286.958V177.607ZM261.819 178.528L221.724 73.0135L219.053 74.0283L259.149 179.543L261.819 178.528ZM220.187 72.1068L219.515 72.2027L219.919 75.0309L220.591 74.935L220.187 72.1068ZM218.29 73.6717L220.592 133.527L223.447 133.417L221.144 73.5619L218.29 73.6717ZM220.591 133.472V156.302H223.448V133.472H220.591ZM221.753 157.705L237.964 160.775L238.496 157.968L222.285 154.898L221.753 157.705ZM236.802 159.371V179.035H239.658V159.371H236.802ZM238.23 177.607H175.593V180.464H238.23V177.607Z" fill="black" mask="url(#path-5-outside-3_8302_6304)"/>
<mask id="path-7-outside-4_8302_6304" maskUnits="userSpaceOnUse" x="386.441" y="22.3965" width="179" height="159" fill="black">
<rect fill="white" x="386.441" y="22.3965" width="179" height="159"/>
<path d="M423.156 179.453C412.906 179.453 404.551 176.548 398.088 170.738C391.625 164.928 388.394 157.192 388.394 147.531C388.394 140.937 390.156 135.095 393.681 130.003C397.272 124.911 402.625 120.929 409.74 118.057C416.921 115.119 425.897 113.65 436.669 113.65H447.734V107.383C447.734 103.14 446.526 99.5498 444.11 96.6121C441.695 93.6093 437.876 92.1078 432.654 92.1078C430.434 92.1078 428.345 92.4016 426.387 92.9891C424.494 93.5113 422.764 94.2947 421.197 95.3392L418.847 108.852H394.661L394.171 79.3782C400.177 76.7017 406.444 74.3842 412.972 72.4258C419.565 70.4674 426.909 69.4882 435.004 69.4882C449.431 69.4882 460.887 72.8175 469.374 79.4761C477.86 86.0694 482.104 95.5024 482.104 107.775V146.845C482.104 148.347 482.104 149.816 482.104 151.252C482.169 152.688 482.332 154.059 482.593 155.364L494.05 157.323V177.396H453.903C453.054 176.221 452.14 174.655 451.161 172.696C450.182 170.738 449.496 168.779 449.104 166.821C445.906 170.803 442.315 173.904 438.333 176.124C434.351 178.343 429.292 179.453 423.156 179.453ZM433.731 155.169C436.212 155.169 438.692 154.679 441.173 153.7C443.719 152.655 445.906 151.121 447.734 149.097V133.822H437.06C432.425 133.822 428.835 134.834 426.289 136.857C423.808 138.881 422.568 141.558 422.568 144.887C422.568 148.086 423.612 150.599 425.701 152.427C427.79 154.255 430.467 155.169 433.731 155.169ZM504.602 177.396V157.323L517.038 154.189V94.7517L502.252 91.6182V71.4466H551.408V154.189L563.746 157.323V177.396H504.602ZM516.059 51.3729V24.6406H551.408V51.3729H516.059Z"/>
</mask>
<path d="M423.156 179.453C412.906 179.453 404.551 176.548 398.088 170.738C391.625 164.928 388.394 157.192 388.394 147.531C388.394 140.937 390.156 135.095 393.681 130.003C397.272 124.911 402.625 120.929 409.74 118.057C416.921 115.119 425.897 113.65 436.669 113.65H447.734V107.383C447.734 103.14 446.526 99.5498 444.11 96.6121C441.695 93.6093 437.876 92.1078 432.654 92.1078C430.434 92.1078 428.345 92.4016 426.387 92.9891C424.494 93.5113 422.764 94.2947 421.197 95.3392L418.847 108.852H394.661L394.171 79.3782C400.177 76.7017 406.444 74.3842 412.972 72.4258C419.565 70.4674 426.909 69.4882 435.004 69.4882C449.431 69.4882 460.887 72.8175 469.374 79.4761C477.86 86.0694 482.104 95.5024 482.104 107.775V146.845C482.104 148.347 482.104 149.816 482.104 151.252C482.169 152.688 482.332 154.059 482.593 155.364L494.05 157.323V177.396H453.903C453.054 176.221 452.14 174.655 451.161 172.696C450.182 170.738 449.496 168.779 449.104 166.821C445.906 170.803 442.315 173.904 438.333 176.124C434.351 178.343 429.292 179.453 423.156 179.453ZM433.731 155.169C436.212 155.169 438.692 154.679 441.173 153.7C443.719 152.655 445.906 151.121 447.734 149.097V133.822H437.06C432.425 133.822 428.835 134.834 426.289 136.857C423.808 138.881 422.568 141.558 422.568 144.887C422.568 148.086 423.612 150.599 425.701 152.427C427.79 154.255 430.467 155.169 433.731 155.169ZM504.602 177.396V157.323L517.038 154.189V94.7517L502.252 91.6182V71.4466H551.408V154.189L563.746 157.323V177.396H504.602ZM516.059 51.3729V24.6406H551.408V51.3729H516.059Z" fill="#35A7FF"/>
<path d="M398.088 170.738L397.133 171.8L398.088 170.738ZM393.681 130.003L392.514 129.18L392.507 129.19L393.681 130.003ZM409.74 118.057L410.275 119.381L410.281 119.379L409.74 118.057ZM447.734 113.65V115.079H449.162V113.65H447.734ZM444.11 96.6121L442.997 97.5074L443.002 97.5134L443.007 97.5194L444.11 96.6121ZM426.387 92.9891L426.767 94.3661L426.782 94.3619L426.797 94.3573L426.387 92.9891ZM421.197 95.3392L420.405 94.1506L419.895 94.4906L419.79 95.0944L421.197 95.3392ZM418.847 108.852V110.281H420.048L420.254 109.097L418.847 108.852ZM394.661 108.852L393.232 108.876L393.256 110.281H394.661V108.852ZM394.171 79.3782L393.59 78.0734L392.727 78.4578L392.743 79.4019L394.171 79.3782ZM412.972 72.4258L412.565 71.0565L412.561 71.0576L412.972 72.4258ZM469.374 79.4761L468.492 80.5999L468.498 80.6041L469.374 79.4761ZM482.104 151.252H480.675V151.284L480.677 151.317L482.104 151.252ZM482.593 155.364L481.192 155.645L481.385 156.607L482.353 156.772L482.593 155.364ZM494.05 157.323H495.478V156.118L494.291 155.915L494.05 157.323ZM494.05 177.396V178.825H495.478V177.396H494.05ZM453.903 177.396L452.744 178.233L453.172 178.825H453.903V177.396ZM449.104 166.821L450.505 166.541L449.906 163.543L447.991 165.927L449.104 166.821ZM441.173 153.7L441.697 155.028L441.706 155.025L441.715 155.021L441.173 153.7ZM447.734 149.097L448.794 150.055L449.162 149.647V149.097H447.734ZM447.734 133.822H449.162V132.393H447.734V133.822ZM426.289 136.857L425.4 135.739L425.393 135.745L425.386 135.751L426.289 136.857ZM423.156 178.024C413.192 178.024 405.198 175.209 399.043 169.676L397.133 171.8C403.904 177.887 412.621 180.881 423.156 180.881V178.024ZM399.043 169.676C392.917 164.169 389.822 156.837 389.822 147.531H386.965C386.965 157.547 390.333 165.687 397.133 171.8L399.043 169.676ZM389.822 147.531C389.822 141.208 391.507 135.653 394.856 130.816L392.507 129.19C388.806 134.536 386.965 140.667 386.965 147.531H389.822ZM394.849 130.826C398.248 126.006 403.355 122.175 410.275 119.381L409.206 116.732C401.895 119.683 396.296 123.816 392.514 129.18L394.849 130.826ZM410.281 119.379C417.238 116.533 426.016 115.079 436.669 115.079V112.222C425.779 112.222 416.605 113.705 409.2 116.735L410.281 119.379ZM436.669 115.079H447.734V112.222H436.669V115.079ZM449.162 113.65V107.383H446.305V113.65H449.162ZM449.162 107.383C449.162 102.85 447.864 98.9279 445.214 95.7049L443.007 97.5194C445.188 100.172 446.305 103.43 446.305 107.383H449.162ZM445.224 95.7169C442.449 92.2672 438.145 90.6794 432.654 90.6794V93.5363C437.607 93.5363 440.941 94.9513 442.997 97.5074L445.224 95.7169ZM432.654 90.6794C430.307 90.6794 428.079 90.9902 425.976 91.6209L426.797 94.3573C428.612 93.813 430.561 93.5363 432.654 93.5363V90.6794ZM426.007 91.6121C423.974 92.173 422.103 93.0182 420.405 94.1506L421.989 96.5277C423.424 95.5712 425.014 94.8496 426.767 94.3661L426.007 91.6121ZM419.79 95.0944L417.44 108.607L420.254 109.097L422.604 95.5839L419.79 95.0944ZM418.847 107.424H394.661V110.281H418.847V107.424ZM396.089 108.828L395.599 79.3544L392.743 79.4019L393.232 108.876L396.089 108.828ZM394.753 80.6829C400.701 78.0321 406.91 75.7356 413.382 73.794L412.561 71.0576C405.977 73.0329 399.653 75.3713 393.59 78.0734L394.753 80.6829ZM413.379 73.7951C419.819 71.8821 427.023 70.9166 435.004 70.9166V68.0597C426.795 68.0597 419.311 69.0527 412.565 71.0565L413.379 73.7951ZM435.004 70.9166C449.219 70.9166 460.331 74.1962 468.492 80.5999L470.256 78.3523C461.444 71.4388 449.643 68.0597 435.004 68.0597V70.9166ZM468.498 80.6041C476.583 86.886 480.675 95.8724 480.675 107.775H483.532C483.532 95.1323 479.138 85.2528 470.25 78.3481L468.498 80.6041ZM480.675 107.775V146.845H483.532V107.775H480.675ZM480.675 146.845C480.675 146.848 480.675 146.851 480.675 146.854C480.675 146.857 480.675 146.86 480.675 146.863C480.675 146.866 480.675 146.869 480.675 146.872C480.675 146.875 480.675 146.878 480.675 146.88C480.675 146.883 480.675 146.886 480.675 146.889C480.675 146.892 480.675 146.895 480.675 146.898C480.675 146.901 480.675 146.904 480.675 146.907C480.675 146.91 480.675 146.913 480.675 146.916C480.675 146.919 480.675 146.922 480.675 146.924C480.675 146.927 480.675 146.93 480.675 146.933C480.675 146.936 480.675 146.939 480.675 146.942C480.675 146.945 480.675 146.948 480.675 146.951C480.675 146.954 480.675 146.957 480.675 146.96C480.675 146.963 480.675 146.965 480.675 146.968C480.675 146.971 480.675 146.974 480.675 146.977C480.675 146.98 480.675 146.983 480.675 146.986C480.675 146.989 480.675 146.992 480.675 146.995C480.675 146.998 480.675 147.001 480.675 147.004C480.675 147.006 480.675 147.009 480.675 147.012C480.675 147.015 480.675 147.018 480.675 147.021C480.675 147.024 480.675 147.027 480.675 147.03C480.675 147.033 480.675 147.036 480.675 147.039C480.675 147.042 480.675 147.045 480.675 147.047C480.675 147.05 480.675 147.053 480.675 147.056C480.675 147.059 480.675 147.062 480.675 147.065C480.675 147.068 480.675 147.071 480.675 147.074C480.675 147.077 480.675 147.08 480.675 147.083C480.675 147.086 480.675 147.088 480.675 147.091C480.675 147.094 480.675 147.097 480.675 147.1C480.675 147.103 480.675 147.106 480.675 147.109C480.675 147.112 480.675 147.115 480.675 147.118C480.675 147.121 480.675 147.124 480.675 147.126C480.675 147.129 480.675 147.132 480.675 147.135C480.675 147.138 480.675 147.141 480.675 147.144C480.675 147.147 480.675 147.15 480.675 147.153C480.675 147.156 480.675 147.159 480.675 147.162C480.675 147.164 480.675 147.167 480.675 147.17C480.675 147.173 480.675 147.176 480.675 147.179C480.675 147.182 480.675 147.185 480.675 147.188C480.675 147.191 480.675 147.194 480.675 147.197C480.675 147.2 480.675 147.202 480.675 147.205C480.675 147.208 480.675 147.211 480.675 147.214C480.675 147.217 480.675 147.22 480.675 147.223C480.675 147.226 480.675 147.229 480.675 147.232C480.675 147.235 480.675 147.238 480.675 147.24C480.675 147.243 480.675 147.246 480.675 147.249C480.675 147.252 480.675 147.255 480.675 147.258C480.675 147.261 480.675 147.264 480.675 147.267C480.675 147.27 480.675 147.273 480.675 147.275C480.675 147.278 480.675 147.281 480.675 147.284C480.675 147.287 480.675 147.29 480.675 147.293C480.675 147.296 480.675 147.299 480.675 147.302C480.675 147.305 480.675 147.308 480.675 147.311C480.675 147.313 480.675 147.316 480.675 147.319C480.675 147.322 480.675 147.325 480.675 147.328C480.675 147.331 480.675 147.334 480.675 147.337C480.675 147.34 480.675 147.343 480.675 147.346C480.675 147.348 480.675 147.351 480.675 147.354C480.675 147.357 480.675 147.36 480.675 147.363C480.675 147.366 480.675 147.369 480.675 147.372C480.675 147.375 480.675 147.378 480.675 147.381C480.675 147.383 480.675 147.386 480.675 147.389C480.675 147.392 480.675 147.395 480.675 147.398C480.675 147.401 480.675 147.404 480.675 147.407C480.675 147.41 480.675 147.413 480.675 147.416C480.675 147.418 480.675 147.421 480.675 147.424C480.675 147.427 480.675 147.43 480.675 147.433C480.675 147.436 480.675 147.439 480.675 147.442C480.675 147.445 480.675 147.448 480.675 147.451C480.675 147.453 480.675 147.456 480.675 147.459C480.675 147.462 480.675 147.465 480.675 147.468C480.675 147.471 480.675 147.474 480.675 147.477C480.675 147.48 480.675 147.483 480.675 147.486C480.675 147.488 480.675 147.491 480.675 147.494C480.675 147.497 480.675 147.5 480.675 147.503C480.675 147.506 480.675 147.509 480.675 147.512C480.675 147.515 480.675 147.518 480.675 147.521C480.675 147.523 480.675 147.526 480.675 147.529C480.675 147.532 480.675 147.535 480.675 147.538C480.675 147.541 480.675 147.544 480.675 147.547C480.675 147.55 480.675 147.553 480.675 147.555C480.675 147.558 480.675 147.561 480.675 147.564C480.675 147.567 480.675 147.57 480.675 147.573C480.675 147.576 480.675 147.579 480.675 147.582C480.675 147.585 480.675 147.587 480.675 147.59C480.675 147.593 480.675 147.596 480.675 147.599C480.675 147.602 480.675 147.605 480.675 147.608C480.675 147.611 480.675 147.614 480.675 147.617C480.675 147.62 480.675 147.622 480.675 147.625C480.675 147.628 480.675 147.631 480.675 147.634C480.675 147.637 480.675 147.64 480.675 147.643C480.675 147.646 480.675 147.649 480.675 147.652C480.675 147.654 480.675 147.657 480.675 147.66C480.675 147.663 480.675 147.666 480.675 147.669C480.675 147.672 480.675 147.675 480.675 147.678C480.675 147.681 480.675 147.684 480.675 147.686C480.675 147.689 480.675 147.692 480.675 147.695C480.675 147.698 480.675 147.701 480.675 147.704C480.675 147.707 480.675 147.71 480.675 147.713C480.675 147.716 480.675 147.718 480.675 147.721C480.675 147.724 480.675 147.727 480.675 147.73C480.675 147.733 480.675 147.736 480.675 147.739C480.675 147.742 480.675 147.745 480.675 147.747C480.675 147.75 480.675 147.753 480.675 147.756C480.675 147.759 480.675 147.762 480.675 147.765C480.675 147.768 480.675 147.771 480.675 147.774C480.675 147.777 480.675 147.779 480.675 147.782C480.675 147.785 480.675 147.788 480.675 147.791C480.675 147.794 480.675 147.797 480.675 147.8C480.675 147.803 480.675 147.806 480.675 147.809C480.675 147.811 480.675 147.814 480.675 147.817C480.675 147.82 480.675 147.823 480.675 147.826C480.675 147.829 480.675 147.832 480.675 147.835C480.675 147.838 480.675 147.84 480.675 147.843C480.675 147.846 480.675 147.849 480.675 147.852C480.675 147.855 480.675 147.858 480.675 147.861C480.675 147.864 480.675 147.867 480.675 147.87C480.675 147.872 480.675 147.875 480.675 147.878C480.675 147.881 480.675 147.884 480.675 147.887C480.675 147.89 480.675 147.893 480.675 147.896C480.675 147.899 480.675 147.901 480.675 147.904C480.675 147.907 480.675 147.91 480.675 147.913C480.675 147.916 480.675 147.919 480.675 147.922C480.675 147.925 480.675 147.928 480.675 147.93C480.675 147.933 480.675 147.936 480.675 147.939C480.675 147.942 480.675 147.945 480.675 147.948C480.675 147.951 480.675 147.954 480.675 147.957C480.675 147.959 480.675 147.962 480.675 147.965C480.675 147.968 480.675 147.971 480.675 147.974C480.675 147.977 480.675 147.98 480.675 147.983C480.675 147.986 480.675 147.988 480.675 147.991C480.675 147.994 480.675 147.997 480.675 148C480.675 148.003 480.675 148.006 480.675 148.009C480.675 148.012 480.675 148.015 480.675 148.017C480.675 148.02 480.675 148.023 480.675 148.026C480.675 148.029 480.675 148.032 480.675 148.035C480.675 148.038 480.675 148.041 480.675 148.044C480.675 148.046 480.675 148.049 480.675 148.052C480.675 148.055 480.675 148.058 480.675 148.061C480.675 148.064 480.675 148.067 480.675 148.07C480.675 148.073 480.675 148.075 480.675 148.078C480.675 148.081 480.675 148.084 480.675 148.087C480.675 148.09 480.675 148.093 480.675 148.096C480.675 148.099 480.675 148.102 480.675 148.104C480.675 148.107 480.675 148.11 480.675 148.113C480.675 148.116 480.675 148.119 480.675 148.122C480.675 148.125 480.675 148.128 480.675 148.13C480.675 148.133 480.675 148.136 480.675 148.139C480.675 148.142 480.675 148.145 480.675 148.148C480.675 148.151 480.675 148.154 480.675 148.157C480.675 148.159 480.675 148.162 480.675 148.165C480.675 148.168 480.675 148.171 480.675 148.174C480.675 148.177 480.675 148.18 480.675 148.183C480.675 148.185 480.675 148.188 480.675 148.191C480.675 148.194 480.675 148.197 480.675 148.2C480.675 148.203 480.675 148.206 480.675 148.209C480.675 148.212 480.675 148.214 480.675 148.217C480.675 148.22 480.675 148.223 480.675 148.226C480.675 148.229 480.675 148.232 480.675 148.235C480.675 148.238 480.675 148.24 480.675 148.243C480.675 148.246 480.675 148.249 480.675 148.252C480.675 148.255 480.675 148.258 480.675 148.261C480.675 148.264 480.675 148.266 480.675 148.269C480.675 148.272 480.675 148.275 480.675 148.278C480.675 148.281 480.675 148.284 480.675 148.287C480.675 148.29 480.675 148.293 480.675 148.295C480.675 148.298 480.675 148.301 480.675 148.304C480.675 148.307 480.675 148.31 480.675 148.313C480.675 148.316 480.675 148.319 480.675 148.321C480.675 148.324 480.675 148.327 480.675 148.33C480.675 148.333 480.675 148.336 480.675 148.339C480.675 148.342 480.675 148.345 480.675 148.347C480.675 148.35 480.675 148.353 480.675 148.356C480.675 148.359 480.675 148.362 480.675 148.365C480.675 148.368 480.675 148.371 480.675 148.373C480.675 148.376 480.675 148.379 480.675 148.382C480.675 148.385 480.675 148.388 480.675 148.391C480.675 148.394 480.675 148.397 480.675 148.399C480.675 148.402 480.675 148.405 480.675 148.408C480.675 148.411 480.675 148.414 480.675 148.417C480.675 148.42 480.675 148.423 480.675 148.425C480.675 148.428 480.675 148.431 480.675 148.434C480.675 148.437 480.675 148.44 480.675 148.443C480.675 148.446 480.675 148.449 480.675 148.451C480.675 148.454 480.675 148.457 480.675 148.46C480.675 148.463 480.675 148.466 480.675 148.469C480.675 148.472 480.675 148.475 480.675 148.477C480.675 148.48 480.675 148.483 480.675 148.486C480.675 148.489 480.675 148.492 480.675 148.495C480.675 148.498 480.675 148.5 480.675 148.503C480.675 148.506 480.675 148.509 480.675 148.512C480.675 148.515 480.675 148.518 480.675 148.521C480.675 148.524 480.675 148.526 480.675 148.529C480.675 148.532 480.675 148.535 480.675 148.538C480.675 148.541 480.675 148.544 480.675 148.547C480.675 148.55 480.675 148.552 480.675 148.555C480.675 148.558 480.675 148.561 480.675 148.564C480.675 148.567 480.675 148.57 480.675 148.573C480.675 148.575 480.675 148.578 480.675 148.581C480.675 148.584 480.675 148.587 480.675 148.59C480.675 148.593 480.675 148.596 480.675 148.599C480.675 148.601 480.675 148.604 480.675 148.607C480.675 148.61 480.675 148.613 480.675 148.616C480.675 148.619 480.675 148.622 480.675 148.624C480.675 148.627 480.675 148.63 480.675 148.633C480.675 148.636 480.675 148.639 480.675 148.642C480.675 148.645 480.675 148.648 480.675 148.65C480.675 148.653 480.675 148.656 480.675 148.659C480.675 148.662 480.675 148.665 480.675 148.668C480.675 148.671 480.675 148.673 480.675 148.676C480.675 148.679 480.675 148.682 480.675 148.685C480.675 148.688 480.675 148.691 480.675 148.694C480.675 148.696 480.675 148.699 480.675 148.702C480.675 148.705 480.675 148.708 480.675 148.711C480.675 148.714 480.675 148.717 480.675 148.72C480.675 148.722 480.675 148.725 480.675 148.728C480.675 148.731 480.675 148.734 480.675 148.737C480.675 148.74 480.675 148.743 480.675 148.745C480.675 148.748 480.675 148.751 480.675 148.754C480.675 148.757 480.675 148.76 480.675 148.763C480.675 148.766 480.675 148.768 480.675 148.771C480.675 148.774 480.675 148.777 480.675 148.78C480.675 148.783 480.675 148.786 480.675 148.789C480.675 148.791 480.675 148.794 480.675 148.797C480.675 148.8 480.675 148.803 480.675 148.806C480.675 148.809 480.675 148.812 480.675 148.814C480.675 148.817 480.675 148.82 480.675 148.823C480.675 148.826 480.675 148.829 480.675 148.832C480.675 148.835 480.675 148.837 480.675 148.84C480.675 148.843 480.675 148.846 480.675 148.849C480.675 148.852 480.675 148.855 480.675 148.858C480.675 148.86 480.675 148.863 480.675 148.866C480.675 148.869 480.675 148.872 480.675 148.875C480.675 148.878 480.675 148.881 480.675 148.883C480.675 148.886 480.675 148.889 480.675 148.892C480.675 148.895 480.675 148.898 480.675 148.901C480.675 148.904 480.675 148.906 480.675 148.909C480.675 148.912 480.675 148.915 480.675 148.918C480.675 148.921 480.675 148.924 480.675 148.927C480.675 148.929 480.675 148.932 480.675 148.935C480.675 148.938 480.675 148.941 480.675 148.944C480.675 148.947 480.675 148.95 480.675 148.952C480.675 148.955 480.675 148.958 480.675 148.961C480.675 148.964 480.675 148.967 480.675 148.97C480.675 148.973 480.675 148.975 480.675 148.978C480.675 148.981 480.675 148.984 480.675 148.987C480.675 148.99 480.675 148.993 480.675 148.996C480.675 148.998 480.675 149.001 480.675 149.004C480.675 149.007 480.675 149.01 480.675 149.013C480.675 149.016 480.675 149.018 480.675 149.021C480.675 149.024 480.675 149.027 480.675 149.03C480.675 149.033 480.675 149.036 480.675 149.039C480.675 149.041 480.675 149.044 480.675 149.047C480.675 149.05 480.675 149.053 480.675 149.056C480.675 149.059 480.675 149.062 480.675 149.064C480.675 149.067 480.675 149.07 480.675 149.073C480.675 149.076 480.675 149.079 480.675 149.082C480.675 149.084 480.675 149.087 480.675 149.09C480.675 149.093 480.675 149.096 480.675 149.099C480.675 149.102 480.675 149.105 480.675 149.107C480.675 149.11 480.675 149.113 480.675 149.116C480.675 149.119 480.675 149.122 480.675 149.125C480.675 149.128 480.675 149.13 480.675 149.133C480.675 149.136 480.675 149.139 480.675 149.142C480.675 149.145 480.675 149.148 480.675 149.15C480.675 149.153 480.675 149.156 480.675 149.159C480.675 149.162 480.675 149.165 480.675 149.168C480.675 149.171 480.675 149.173 480.675 149.176C480.675 149.179 480.675 149.182 480.675 149.185C480.675 149.188 480.675 149.191 480.675 149.193C480.675 149.196 480.675 149.199 480.675 149.202C480.675 149.205 480.675 149.208 480.675 149.211C480.675 149.213 480.675 149.216 480.675 149.219C480.675 149.222 480.675 149.225 480.675 149.228C480.675 149.231 480.675 149.234 480.675 149.236C480.675 149.239 480.675 149.242 480.675 149.245C480.675 149.248 480.675 149.251 480.675 149.254C480.675 149.256 480.675 149.259 480.675 149.262C480.675 149.265 480.675 149.268 480.675 149.271C480.675 149.274 480.675 149.276 480.675 149.279C480.675 149.282 480.675 149.285 480.675 149.288C480.675 149.291 480.675 149.294 480.675 149.297C480.675 149.299 480.675 149.302 480.675 149.305C480.675 149.308 480.675 149.311 480.675 149.314C480.675 149.317 480.675 149.319 480.675 149.322C480.675 149.325 480.675 149.328 480.675 149.331C480.675 149.334 480.675 149.337 480.675 149.339C480.675 149.342 480.675 149.345 480.675 149.348C480.675 149.351 480.675 149.354 480.675 149.357C480.675 149.359 480.675 149.362 480.675 149.365C480.675 149.368 480.675 149.371 480.675 149.374C480.675 149.377 480.675 149.379 480.675 149.382C480.675 149.385 480.675 149.388 480.675 149.391C480.675 149.394 480.675 149.397 480.675 149.4C480.675 149.402 480.675 149.405 480.675 149.408C480.675 149.411 480.675 149.414 480.675 149.417C480.675 149.42 480.675 149.422 480.675 149.425C480.675 149.428 480.675 149.431 480.675 149.434C480.675 149.437 480.675 149.44 480.675 149.442C480.675 149.445 480.675 149.448 480.675 149.451C480.675 149.454 480.675 149.457 480.675 149.46C480.675 149.462 480.675 149.465 480.675 149.468C480.675 149.471 480.675 149.474 480.675 149.477C480.675 149.48 480.675 149.482 480.675 149.485C480.675 149.488 480.675 149.491 480.675 149.494C480.675 149.497 480.675 149.5 480.675 149.502C480.675 149.505 480.675 149.508 480.675 149.511C480.675 149.514 480.675 149.517 480.675 149.52C480.675 149.522 480.675 149.525 480.675 149.528C480.675 149.531 480.675 149.534 480.675 149.537C480.675 149.54 480.675 149.542 480.675 149.545C480.675 149.548 480.675 149.551 480.675 149.554C480.675 149.557 480.675 149.559 480.675 149.562C480.675 149.565 480.675 149.568 480.675 149.571C480.675 149.574 480.675 149.577 480.675 149.579C480.675 149.582 480.675 149.585 480.675 149.588C480.675 149.591 480.675 149.594 480.675 149.597C480.675 149.599 480.675 149.602 480.675 149.605C480.675 149.608 480.675 149.611 480.675 149.614C480.675 149.617 480.675 149.619 480.675 149.622C480.675 149.625 480.675 149.628 480.675 149.631C480.675 149.634 480.675 149.637 480.675 149.639C480.675 149.642 480.675 149.645 480.675 149.648C480.675 149.651 480.675 149.654 480.675 149.657C480.675 149.659 480.675 149.662 480.675 149.665C480.675 149.668 480.675 149.671 480.675 149.674C480.675 149.676 480.675 149.679 480.675 149.682C480.675 149.685 480.675 149.688 480.675 149.691C480.675 149.694 480.675 149.696 480.675 149.699C480.675 149.702 480.675 149.705 480.675 149.708C480.675 149.711 480.675 149.714 480.675 149.716C480.675 149.719 480.675 149.722 480.675 149.725C480.675 149.728 480.675 149.731 480.675 149.733C480.675 149.736 480.675 149.739 480.675 149.742C480.675 149.745 480.675 149.748 480.675 149.751C480.675 149.753 480.675 149.756 480.675 149.759C480.675 149.762 480.675 149.765 480.675 149.768C480.675 149.771 480.675 149.773 480.675 149.776C480.675 149.779 480.675 149.782 480.675 149.785C480.675 149.788 480.675 149.79 480.675 149.793C480.675 149.796 480.675 149.799 480.675 149.802C480.675 149.805 480.675 149.808 480.675 149.81C480.675 149.813 480.675 149.816 480.675 149.819C480.675 149.822 480.675 149.825 480.675 149.827C480.675 149.83 480.675 149.833 480.675 149.836C480.675 149.839 480.675 149.842 480.675 149.845C480.675 149.847 480.675 149.85 480.675 149.853C480.675 149.856 480.675 149.859 480.675 149.862C480.675 149.864 480.675 149.867 480.675 149.87C480.675 149.873 480.675 149.876 480.675 149.879C480.675 149.882 480.675 149.884 480.675 149.887C480.675 149.89 480.675 149.893 480.675 149.896C480.675 149.899 480.675 149.901 480.675 149.904C480.675 149.907 480.675 149.91 480.675 149.913C480.675 149.916 480.675 149.919 480.675 149.921C480.675 149.924 480.675 149.927 480.675 149.93C480.675 149.933 480.675 149.936 480.675 149.938C480.675 149.941 480.675 149.944 480.675 149.947C480.675 149.95 480.675 149.953 480.675 149.955C480.675 149.958 480.675 149.961 480.675 149.964C480.675 149.967 480.675 149.97 480.675 149.973C480.675 149.975 480.675 149.978 480.675 149.981C480.675 149.984 480.675 149.987 480.675 149.99C480.675 149.992 480.675 149.995 480.675 149.998C480.675 150.001 480.675 150.004 480.675 150.007C480.675 150.009 480.675 150.012 480.675 150.015C480.675 150.018 480.675 150.021 480.675 150.024C480.675 150.027 480.675 150.029 480.675 150.032C480.675 150.035 480.675 150.038 480.675 150.041C480.675 150.044 480.675 150.046 480.675 150.049C480.675 150.052 480.675 150.055 480.675 150.058C480.675 150.061 480.675 150.063 480.675 150.066C480.675 150.069 480.675 150.072 480.675 150.075C480.675 150.078 480.675 150.081 480.675 150.083C480.675 150.086 480.675 150.089 480.675 150.092C480.675 150.095 480.675 150.098 480.675 150.1C480.675 150.103 480.675 150.106 480.675 150.109C480.675 150.112 480.675 150.115 480.675 150.117C480.675 150.12 480.675 150.123 480.675 150.126C480.675 150.129 480.675 150.132 480.675 150.134C480.675 150.137 480.675 150.14 480.675 150.143C480.675 150.146 480.675 150.149 480.675 150.151C480.675 150.154 480.675 150.157 480.675 150.16C480.675 150.163 480.675 150.166 480.675 150.168C480.675 150.171 480.675 150.174 480.675 150.177C480.675 150.18 480.675 150.183 480.675 150.186C480.675 150.188 480.675 150.191 480.675 150.194C480.675 150.197 480.675 150.2 480.675 150.203C480.675 150.205 480.675 150.208 480.675 150.211C480.675 150.214 480.675 150.217 480.675 150.22C480.675 150.222 480.675 150.225 480.675 150.228C480.675 150.231 480.675 150.234 480.675 150.237C480.675 150.239 480.675 150.242 480.675 150.245C480.675 150.248 480.675 150.251 480.675 150.254C480.675 150.256 480.675 150.259 480.675 150.262C480.675 150.265 480.675 150.268 480.675 150.271C480.675 150.273 480.675 150.276 480.675 150.279C480.675 150.282 480.675 150.285 480.675 150.288C480.675 150.29 480.675 150.293 480.675 150.296C480.675 150.299 480.675 150.302 480.675 150.305C480.675 150.307 480.675 150.31 480.675 150.313C480.675 150.316 480.675 150.319 480.675 150.322C480.675 150.324 480.675 150.327 480.675 150.33C480.675 150.333 480.675 150.336 480.675 150.339C480.675 150.341 480.675 150.344 480.675 150.347C480.675 150.35 480.675 150.353 480.675 150.356C480.675 150.358 480.675 150.361 480.675 150.364C480.675 150.367 480.675 150.37 480.675 150.373C480.675 150.375 480.675 150.378 480.675 150.381C480.675 150.384 480.675 150.387 480.675 150.39C480.675 150.392 480.675 150.395 480.675 150.398C480.675 150.401 480.675 150.404 480.675 150.406C480.675 150.409 480.675 150.412 480.675 150.415C480.675 150.418 480.675 150.421 480.675 150.423C480.675 150.426 480.675 150.429 480.675 150.432C480.675 150.435 480.675 150.438 480.675 150.44C480.675 150.443 480.675 150.446 480.675 150.449C480.675 150.452 480.675 150.455 480.675 150.457C480.675 150.46 480.675 150.463 480.675 150.466C480.675 150.469 480.675 150.472 480.675 150.474C480.675 150.477 480.675 150.48 480.675 150.483C480.675 150.486 480.675 150.489 480.675 150.491C480.675 150.494 480.675 150.497 480.675 150.5C480.675 150.503 480.675 150.505 480.675 150.508C480.675 150.511 480.675 150.514 480.675 150.517C480.675 150.52 480.675 150.522 480.675 150.525C480.675 150.528 480.675 150.531 480.675 150.534C480.675 150.537 480.675 150.539 480.675 150.542C480.675 150.545 480.675 150.548 480.675 150.551C480.675 150.554 480.675 150.556 480.675 150.559C480.675 150.562 480.675 150.565 480.675 150.568C480.675 150.57 480.675 150.573 480.675 150.576C480.675 150.579 480.675 150.582 480.675 150.585C480.675 150.587 480.675 150.59 480.675 150.593C480.675 150.596 480.675 150.599 480.675 150.602C480.675 150.604 480.675 150.607 480.675 150.61C480.675 150.613 480.675 150.616 480.675 150.618C480.675 150.621 480.675 150.624 480.675 150.627C480.675 150.63 480.675 150.633 480.675 150.635C480.675 150.638 480.675 150.641 480.675 150.644C480.675 150.647 480.675 150.65 480.675 150.652C480.675 150.655 480.675 150.658 480.675 150.661C480.675 150.664 480.675 150.667 480.675 150.669C480.675 150.672 480.675 150.675 480.675 150.678C480.675 150.681 480.675 150.683 480.675 150.686C480.675 150.689 480.675 150.692 480.675 150.695C480.675 150.698 480.675 150.7 480.675 150.703C480.675 150.706 480.675 150.709 480.675 150.712C480.675 150.714 480.675 150.717 480.675 150.72C480.675 150.723 480.675 150.726 480.675 150.729C480.675 150.731 480.675 150.734 480.675 150.737C480.675 150.74 480.675 150.743 480.675 150.745C480.675 150.748 480.675 150.751 480.675 150.754C480.675 150.757 480.675 150.76 480.675 150.762C480.675 150.765 480.675 150.768 480.675 150.771C480.675 150.774 480.675 150.777 480.675 150.779C480.675 150.782 480.675 150.785 480.675 150.788C480.675 150.791 480.675 150.793 480.675 150.796C480.675 150.799 480.675 150.802 480.675 150.805C480.675 150.808 480.675 150.81 480.675 150.813C480.675 150.816 480.675 150.819 480.675 150.822C480.675 150.824 480.675 150.827 480.675 150.83C480.675 150.833 480.675 150.836 480.675 150.839C480.675 150.841 480.675 150.844 480.675 150.847C480.675 150.85 480.675 150.853 480.675 150.855C480.675 150.858 480.675 150.861 480.675 150.864C480.675 150.867 480.675 150.869 480.675 150.872C480.675 150.875 480.675 150.878 480.675 150.881C480.675 150.884 480.675 150.886 480.675 150.889C480.675 150.892 480.675 150.895 480.675 150.898C480.675 150.9 480.675 150.903 480.675 150.906C480.675 150.909 480.675 150.912 480.675 150.915C480.675 150.917 480.675 150.92 480.675 150.923C480.675 150.926 480.675 150.929 480.675 150.931C480.675 150.934 480.675 150.937 480.675 150.94C480.675 150.943 480.675 150.945 480.675 150.948C480.675 150.951 480.675 150.954 480.675 150.957C480.675 150.96 480.675 150.962 480.675 150.965C480.675 150.968 480.675 150.971 480.675 150.974C480.675 150.976 480.675 150.979 480.675 150.982C480.675 150.985 480.675 150.988 480.675 150.991C480.675 150.993 480.675 150.996 480.675 150.999C480.675 151.002 480.675 151.005 480.675 151.007C480.675 151.01 480.675 151.013 480.675 151.016C480.675 151.019 480.675 151.021 480.675 151.024C480.675 151.027 480.675 151.03 480.675 151.033C480.675 151.036 480.675 151.038 480.675 151.041C480.675 151.044 480.675 151.047 480.675 151.05C480.675 151.052 480.675 151.055 480.675 151.058C480.675 151.061 480.675 151.064 480.675 151.066C480.675 151.069 480.675 151.072 480.675 151.075C480.675 151.078 480.675 151.08 480.675 151.083C480.675 151.086 480.675 151.089 480.675 151.092C480.675 151.095 480.675 151.097 480.675 151.1C480.675 151.103 480.675 151.106 480.675 151.109C480.675 151.111 480.675 151.114 480.675 151.117C480.675 151.12 480.675 151.123 480.675 151.125C480.675 151.128 480.675 151.131 480.675 151.134C480.675 151.137 480.675 151.139 480.675 151.142C480.675 151.145 480.675 151.148 480.675 151.151C480.675 151.154 480.675 151.156 480.675 151.159C480.675 151.162 480.675 151.165 480.675 151.168C480.675 151.17 480.675 151.173 480.675 151.176C480.675 151.179 480.675 151.182 480.675 151.184C480.675 151.187 480.675 151.19 480.675 151.193C480.675 151.196 480.675 151.198 480.675 151.201C480.675 151.204 480.675 151.207 480.675 151.21C480.675 151.212 480.675 151.215 480.675 151.218C480.675 151.221 480.675 151.224 480.675 151.226C480.675 151.229 480.675 151.232 480.675 151.235C480.675 151.238 480.675 151.241 480.675 151.243C480.675 151.246 480.675 151.249 480.675 151.252H483.532C483.532 151.249 483.532 151.246 483.532 151.243C483.532 151.241 483.532 151.238 483.532 151.235C483.532 151.232 483.532 151.229 483.532 151.226C483.532 151.224 483.532 151.221 483.532 151.218C483.532 151.215 483.532 151.212 483.532 151.21C483.532 151.207 483.532 151.204 483.532 151.201C483.532 151.198 483.532 151.196 483.532 151.193C483.532 151.19 483.532 151.187 483.532 151.184C483.532 151.182 483.532 151.179 483.532 151.176C483.532 151.173 483.532 151.17 483.532 151.168C483.532 151.165 483.532 151.162 483.532 151.159C483.532 151.156 483.532 151.154 483.532 151.151C483.532 151.148 483.532 151.145 483.532 151.142C483.532 151.139 483.532 151.137 483.532 151.134C483.532 151.131 483.532 151.128 483.532 151.125C483.532 151.123 483.532 151.12 483.532 151.117C483.532 151.114 483.532 151.111 483.532 151.109C483.532 151.106 483.532 151.103 483.532 151.1C483.532 151.097 483.532 151.095 483.532 151.092C483.532 151.089 483.532 151.086 483.532 151.083C483.532 151.08 483.532 151.078 483.532 151.075C483.532 151.072 483.532 151.069 483.532 151.066C483.532 151.064 483.532 151.061 483.532 151.058C483.532 151.055 483.532 151.052 483.532 151.05C483.532 151.047 483.532 151.044 483.532 151.041C483.532 151.038 483.532 151.036 483.532 151.033C483.532 151.03 483.532 151.027 483.532 151.024C483.532 151.021 483.532 151.019 483.532 151.016C483.532 151.013 483.532 151.01 483.532 151.007C483.532 151.005 483.532 151.002 483.532 150.999C483.532 150.996 483.532 150.993 483.532 150.991C483.532 150.988 483.532 150.985 483.532 150.982C483.532 150.979 483.532 150.976 483.532 150.974C483.532 150.971 483.532 150.968 483.532 150.965C483.532 150.962 483.532 150.96 483.532 150.957C483.532 150.954 483.532 150.951 483.532 150.948C483.532 150.945 483.532 150.943 483.532 150.94C483.532 150.937 483.532 150.934 483.532 150.931C483.532 150.929 483.532 150.926 483.532 150.923C483.532 150.92 483.532 150.917 483.532 150.915C483.532 150.912 483.532 150.909 483.532 150.906C483.532 150.903 483.532 150.9 483.532 150.898C483.532 150.895 483.532 150.892 483.532 150.889C483.532 150.886 483.532 150.884 483.532 150.881C483.532 150.878 483.532 150.875 483.532 150.872C483.532 150.869 483.532 150.867 483.532 150.864C483.532 150.861 483.532 150.858 483.532 150.855C483.532 150.853 483.532 150.85 483.532 150.847C483.532 150.844 483.532 150.841 483.532 150.839C483.532 150.836 483.532 150.833 483.532 150.83C483.532 150.827 483.532 150.824 483.532 150.822C483.532 150.819 483.532 150.816 483.532 150.813C483.532 150.81 483.532 150.808 483.532 150.805C483.532 150.802 483.532 150.799 483.532 150.796C483.532 150.793 483.532 150.791 483.532 150.788C483.532 150.785 483.532 150.782 483.532 150.779C483.532 150.777 483.532 150.774 483.532 150.771C483.532 150.768 483.532 150.765 483.532 150.762C483.532 150.76 483.532 150.757 483.532 150.754C483.532 150.751 483.532 150.748 483.532 150.745C483.532 150.743 483.532 150.74 483.532 150.737C483.532 150.734 483.532 150.731 483.532 150.729C483.532 150.726 483.532 150.723 483.532 150.72C483.532 150.717 483.532 150.714 483.532 150.712C483.532 150.709 483.532 150.706 483.532 150.703C483.532 150.7 483.532 150.698 483.532 150.695C483.532 150.692 483.532 150.689 483.532 150.686C483.532 150.683 483.532 150.681 483.532 150.678C483.532 150.675 483.532 150.672 483.532 150.669C483.532 150.667 483.532 150.664 483.532 150.661C483.532 150.658 483.532 150.655 483.532 150.652C483.532 150.65 483.532 150.647 483.532 150.644C483.532 150.641 483.532 150.638 483.532 150.635C483.532 150.633 483.532 150.63 483.532 150.627C483.532 150.624 483.532 150.621 483.532 150.618C483.532 150.616 483.532 150.613 483.532 150.61C483.532 150.607 483.532 150.604 483.532 150.602C483.532 150.599 483.532 150.596 483.532 150.593C483.532 150.59 483.532 150.587 483.532 150.585C483.532 150.582 483.532 150.579 483.532 150.576C483.532 150.573 483.532 150.57 483.532 150.568C483.532 150.565 483.532 150.562 483.532 150.559C483.532 150.556 483.532 150.554 483.532 150.551C483.532 150.548 483.532 150.545 483.532 150.542C483.532 150.539 483.532 150.537 483.532 150.534C483.532 150.531 483.532 150.528 483.532 150.525C483.532 150.522 483.532 150.52 483.532 150.517C483.532 150.514 483.532 150.511 483.532 150.508C483.532 150.505 483.532 150.503 483.532 150.5C483.532 150.497 483.532 150.494 483.532 150.491C483.532 150.489 483.532 150.486 483.532 150.483C483.532 150.48 483.532 150.477 483.532 150.474C483.532 150.472 483.532 150.469 483.532 150.466C483.532 150.463 483.532 150.46 483.532 150.457C483.532 150.455 483.532 150.452 483.532 150.449C483.532 150.446 483.532 150.443 483.532 150.44C483.532 150.438 483.532 150.435 483.532 150.432C483.532 150.429 483.532 150.426 483.532 150.423C483.532 150.421 483.532 150.418 483.532 150.415C483.532 150.412 483.532 150.409 483.532 150.406C483.532 150.404 483.532 150.401 483.532 150.398C483.532 150.395 483.532 150.392 483.532 150.39C483.532 150.387 483.532 150.384 483.532 150.381C483.532 150.378 483.532 150.375 483.532 150.373C483.532 150.37 483.532 150.367 483.532 150.364C483.532 150.361 483.532 150.358 483.532 150.356C483.532 150.353 483.532 150.35 483.532 150.347C483.532 150.344 483.532 150.341 483.532 150.339C483.532 150.336 483.532 150.333 483.532 150.33C483.532 150.327 483.532 150.324 483.532 150.322C483.532 150.319 483.532 150.316 483.532 150.313C483.532 150.31 483.532 150.307 483.532 150.305C483.532 150.302 483.532 150.299 483.532 150.296C483.532 150.293 483.532 150.29 483.532 150.288C483.532 150.285 483.532 150.282 483.532 150.279C483.532 150.276 483.532 150.273 483.532 150.271C483.532 150.268 483.532 150.265 483.532 150.262C483.532 150.259 483.532 150.256 483.532 150.254C483.532 150.251 483.532 150.248 483.532 150.245C483.532 150.242 483.532 150.239 483.532 150.237C483.532 150.234 483.532 150.231 483.532 150.228C483.532 150.225 483.532 150.222 483.532 150.22C483.532 150.217 483.532 150.214 483.532 150.211C483.532 150.208 483.532 150.205 483.532 150.203C483.532 150.2 483.532 150.197 483.532 150.194C483.532 150.191 483.532 150.188 483.532 150.186C483.532 150.183 483.532 150.18 483.532 150.177C483.532 150.174 483.532 150.171 483.532 150.168C483.532 150.166 483.532 150.163 483.532 150.16C483.532 150.157 483.532 150.154 483.532 150.151C483.532 150.149 483.532 150.146 483.532 150.143C483.532 150.14 483.532 150.137 483.532 150.134C483.532 150.132 483.532 150.129 483.532 150.126C483.532 150.123 483.532 150.12 483.532 150.117C483.532 150.115 483.532 150.112 483.532 150.109C483.532 150.106 483.532 150.103 483.532 150.1C483.532 150.098 483.532 150.095 483.532 150.092C483.532 150.089 483.532 150.086 483.532 150.083C483.532 150.081 483.532 150.078 483.532 150.075C483.532 150.072 483.532 150.069 483.532 150.066C483.532 150.063 483.532 150.061 483.532 150.058C483.532 150.055 483.532 150.052 483.532 150.049C483.532 150.046 483.532 150.044 483.532 150.041C483.532 150.038 483.532 150.035 483.532 150.032C483.532 150.029 483.532 150.027 483.532 150.024C483.532 150.021 483.532 150.018 483.532 150.015C483.532 150.012 483.532 150.009 483.532 150.007C483.532 150.004 483.532 150.001 483.532 149.998C483.532 149.995 483.532 149.992 483.532 149.99C483.532 149.987 483.532 149.984 483.532 149.981C483.532 149.978 483.532 149.975 483.532 149.973C483.532 149.97 483.532 149.967 483.532 149.964C483.532 149.961 483.532 149.958 483.532 149.955C483.532 149.953 483.532 149.95 483.532 149.947C483.532 149.944 483.532 149.941 483.532 149.938C483.532 149.936 483.532 149.933 483.532 149.93C483.532 149.927 483.532 149.924 483.532 149.921C483.532 149.919 483.532 149.916 483.532 149.913C483.532 149.91 483.532 149.907 483.532 149.904C483.532 149.901 483.532 149.899 483.532 149.896C483.532 149.893 483.532 149.89 483.532 149.887C483.532 149.884 483.532 149.882 483.532 149.879C483.532 149.876 483.532 149.873 483.532 149.87C483.532 149.867 483.532 149.864 483.532 149.862C483.532 149.859 483.532 149.856 483.532 149.853C483.532 149.85 483.532 149.847 483.532 149.845C483.532 149.842 483.532 149.839 483.532 149.836C483.532 149.833 483.532 149.83 483.532 149.827C483.532 149.825 483.532 149.822 483.532 149.819C483.532 149.816 483.532 149.813 483.532 149.81C483.532 149.808 483.532 149.805 483.532 149.802C483.532 149.799 483.532 149.796 483.532 149.793C483.532 149.79 483.532 149.788 483.532 149.785C483.532 149.782 483.532 149.779 483.532 149.776C483.532 149.773 483.532 149.771 483.532 149.768C483.532 149.765 483.532 149.762 483.532 149.759C483.532 149.756 483.532 149.753 483.532 149.751C483.532 149.748 483.532 149.745 483.532 149.742C483.532 149.739 483.532 149.736 483.532 149.733C483.532 149.731 483.532 149.728 483.532 149.725C483.532 149.722 483.532 149.719 483.532 149.716C483.532 149.714 483.532 149.711 483.532 149.708C483.532 149.705 483.532 149.702 483.532 149.699C483.532 149.696 483.532 149.694 483.532 149.691C483.532 149.688 483.532 149.685 483.532 149.682C483.532 149.679 483.532 149.676 483.532 149.674C483.532 149.671 483.532 149.668 483.532 149.665C483.532 149.662 483.532 149.659 483.532 149.657C483.532 149.654 483.532 149.651 483.532 149.648C483.532 149.645 483.532 149.642 483.532 149.639C483.532 149.637 483.532 149.634 483.532 149.631C483.532 149.628 483.532 149.625 483.532 149.622C483.532 149.619 483.532 149.617 483.532 149.614C483.532 149.611 483.532 149.608 483.532 149.605C483.532 149.602 483.532 149.599 483.532 149.597C483.532 149.594 483.532 149.591 483.532 149.588C483.532 149.585 483.532 149.582 483.532 149.579C483.532 149.577 483.532 149.574 483.532 149.571C483.532 149.568 483.532 149.565 483.532 149.562C483.532 149.559 483.532 149.557 483.532 149.554C483.532 149.551 483.532 149.548 483.532 149.545C483.532 149.542 483.532 149.54 483.532 149.537C483.532 149.534 483.532 149.531 483.532 149.528C483.532 149.525 483.532 149.522 483.532 149.52C483.532 149.517 483.532 149.514 483.532 149.511C483.532 149.508 483.532 149.505 483.532 149.502C483.532 149.5 483.532 149.497 483.532 149.494C483.532 149.491 483.532 149.488 483.532 149.485C483.532 149.482 483.532 149.48 483.532 149.477C483.532 149.474 483.532 149.471 483.532 149.468C483.532 149.465 483.532 149.462 483.532 149.46C483.532 149.457 483.532 149.454 483.532 149.451C483.532 149.448 483.532 149.445 483.532 149.442C483.532 149.44 483.532 149.437 483.532 149.434C483.532 149.431 483.532 149.428 483.532 149.425C483.532 149.422 483.532 149.42 483.532 149.417C483.532 149.414 483.532 149.411 483.532 149.408C483.532 149.405 483.532 149.402 483.532 149.4C483.532 149.397 483.532 149.394 483.532 149.391C483.532 149.388 483.532 149.385 483.532 149.382C483.532 149.379 483.532 149.377 483.532 149.374C483.532 149.371 483.532 149.368 483.532 149.365C483.532 149.362 483.532 149.359 483.532 149.357C483.532 149.354 483.532 149.351 483.532 149.348C483.532 149.345 483.532 149.342 483.532 149.339C483.532 149.337 483.532 149.334 483.532 149.331C483.532 149.328 483.532 149.325 483.532 149.322C483.532 149.319 483.532 149.317 483.532 149.314C483.532 149.311 483.532 149.308 483.532 149.305C483.532 149.302 483.532 149.299 483.532 149.297C483.532 149.294 483.532 149.291 483.532 149.288C483.532 149.285 483.532 149.282 483.532 149.279C483.532 149.276 483.532 149.274 483.532 149.271C483.532 149.268 483.532 149.265 483.532 149.262C483.532 149.259 483.532 149.256 483.532 149.254C483.532 149.251 483.532 149.248 483.532 149.245C483.532 149.242 483.532 149.239 483.532 149.236C483.532 149.234 483.532 149.231 483.532 149.228C483.532 149.225 483.532 149.222 483.532 149.219C483.532 149.216 483.532 149.213 483.532 149.211C483.532 149.208 483.532 149.205 483.532 149.202C483.532 149.199 483.532 149.196 483.532 149.193C483.532 149.191 483.532 149.188 483.532 149.185C483.532 149.182 483.532 149.179 483.532 149.176C483.532 149.173 483.532 149.171 483.532 149.168C483.532 149.165 483.532 149.162 483.532 149.159C483.532 149.156 483.532 149.153 483.532 149.15C483.532 149.148 483.532 149.145 483.532 149.142C483.532 149.139 483.532 149.136 483.532 149.133C483.532 149.13 483.532 149.128 483.532 149.125C483.532 149.122 483.532 149.119 483.532 149.116C483.532 149.113 483.532 149.11 483.532 149.107C483.532 149.105 483.532 149.102 483.532 149.099C483.532 149.096 483.532 149.093 483.532 149.09C483.532 149.087 483.532 149.084 483.532 149.082C483.532 149.079 483.532 149.076 483.532 149.073C483.532 149.07 483.532 149.067 483.532 149.064C483.532 149.062 483.532 149.059 483.532 149.056C483.532 149.053 483.532 149.05 483.532 149.047C483.532 149.044 483.532 149.041 483.532 149.039C483.532 149.036 483.532 149.033 483.532 149.03C483.532 149.027 483.532 149.024 483.532 149.021C483.532 149.018 483.532 149.016 483.532 149.013C483.532 149.01 483.532 149.007 483.532 149.004C483.532 149.001 483.532 148.998 483.532 148.996C483.532 148.993 483.532 148.99 483.532 148.987C483.532 148.984 483.532 148.981 483.532 148.978C483.532 148.975 483.532 148.973 483.532 148.97C483.532 148.967 483.532 148.964 483.532 148.961C483.532 148.958 483.532 148.955 483.532 148.952C483.532 148.95 483.532 148.947 483.532 148.944C483.532 148.941 483.532 148.938 483.532 148.935C483.532 148.932 483.532 148.929 483.532 148.927C483.532 148.924 483.532 148.921 483.532 148.918C483.532 148.915 483.532 148.912 483.532 148.909C483.532 148.906 483.532 148.904 483.532 148.901C483.532 148.898 483.532 148.895 483.532 148.892C483.532 148.889 483.532 148.886 483.532 148.883C483.532 148.881 483.532 148.878 483.532 148.875C483.532 148.872 483.532 148.869 483.532 148.866C483.532 148.863 483.532 148.86 483.532 148.858C483.532 148.855 483.532 148.852 483.532 148.849C483.532 148.846 483.532 148.843 483.532 148.84C483.532 148.837 483.532 148.835 483.532 148.832C483.532 148.829 483.532 148.826 483.532 148.823C483.532 148.82 483.532 148.817 483.532 148.814C483.532 148.812 483.532 148.809 483.532 148.806C483.532 148.803 483.532 148.8 483.532 148.797C483.532 148.794 483.532 148.791 483.532 148.789C483.532 148.786 483.532 148.783 483.532 148.78C483.532 148.777 483.532 148.774 483.532 148.771C483.532 148.768 483.532 148.766 483.532 148.763C483.532 148.76 483.532 148.757 483.532 148.754C483.532 148.751 483.532 148.748 483.532 148.745C483.532 148.743 483.532 148.74 483.532 148.737C483.532 148.734 483.532 148.731 483.532 148.728C483.532 148.725 483.532 148.722 483.532 148.72C483.532 148.717 483.532 148.714 483.532 148.711C483.532 148.708 483.532 148.705 483.532 148.702C483.532 148.699 483.532 148.696 483.532 148.694C483.532 148.691 483.532 148.688 483.532 148.685C483.532 148.682 483.532 148.679 483.532 148.676C483.532 148.673 483.532 148.671 483.532 148.668C483.532 148.665 483.532 148.662 483.532 148.659C483.532 148.656 483.532 148.653 483.532 148.65C483.532 148.648 483.532 148.645 483.532 148.642C483.532 148.639 483.532 148.636 483.532 148.633C483.532 148.63 483.532 148.627 483.532 148.624C483.532 148.622 483.532 148.619 483.532 148.616C483.532 148.613 483.532 148.61 483.532 148.607C483.532 148.604 483.532 148.601 483.532 148.599C483.532 148.596 483.532 148.593 483.532 148.59C483.532 148.587 483.532 148.584 483.532 148.581C483.532 148.578 483.532 148.575 483.532 148.573C483.532 148.57 483.532 148.567 483.532 148.564C483.532 148.561 483.532 148.558 483.532 148.555C483.532 148.552 483.532 148.55 483.532 148.547C483.532 148.544 483.532 148.541 483.532 148.538C483.532 148.535 483.532 148.532 483.532 148.529C483.532 148.526 483.532 148.524 483.532 148.521C483.532 148.518 483.532 148.515 483.532 148.512C483.532 148.509 483.532 148.506 483.532 148.503C483.532 148.5 483.532 148.498 483.532 148.495C483.532 148.492 483.532 148.489 483.532 148.486C483.532 148.483 483.532 148.48 483.532 148.477C483.532 148.475 483.532 148.472 483.532 148.469C483.532 148.466 483.532 148.463 483.532 148.46C483.532 148.457 483.532 148.454 483.532 148.451C483.532 148.449 483.532 148.446 483.532 148.443C483.532 148.44 483.532 148.437 483.532 148.434C483.532 148.431 483.532 148.428 483.532 148.425C483.532 148.423 483.532 148.42 483.532 148.417C483.532 148.414 483.532 148.411 483.532 148.408C483.532 148.405 483.532 148.402 483.532 148.399C483.532 148.397 483.532 148.394 483.532 148.391C483.532 148.388 483.532 148.385 483.532 148.382C483.532 148.379 483.532 148.376 483.532 148.373C483.532 148.371 483.532 148.368 483.532 148.365C483.532 148.362 483.532 148.359 483.532 148.356C483.532 148.353 483.532 148.35 483.532 148.347C483.532 148.345 483.532 148.342 483.532 148.339C483.532 148.336 483.532 148.333 483.532 148.33C483.532 148.327 483.532 148.324 483.532 148.321C483.532 148.319 483.532 148.316 483.532 148.313C483.532 148.31 483.532 148.307 483.532 148.304C483.532 148.301 483.532 148.298 483.532 148.295C483.532 148.293 483.532 148.29 483.532 148.287C483.532 148.284 483.532 148.281 483.532 148.278C483.532 148.275 483.532 148.272 483.532 148.269C483.532 148.266 483.532 148.264 483.532 148.261C483.532 148.258 483.532 148.255 483.532 148.252C483.532 148.249 483.532 148.246 483.532 148.243C483.532 148.24 483.532 148.238 483.532 148.235C483.532 148.232 483.532 148.229 483.532 148.226C483.532 148.223 483.532 148.22 483.532 148.217C483.532 148.214 483.532 148.212 483.532 148.209C483.532 148.206 483.532 148.203 483.532 148.2C483.532 148.197 483.532 148.194 483.532 148.191C483.532 148.188 483.532 148.185 483.532 148.183C483.532 148.18 483.532 148.177 483.532 148.174C483.532 148.171 483.532 148.168 483.532 148.165C483.532 148.162 483.532 148.159 483.532 148.157C483.532 148.154 483.532 148.151 483.532 148.148C483.532 148.145 483.532 148.142 483.532 148.139C483.532 148.136 483.532 148.133 483.532 148.13C483.532 148.128 483.532 148.125 483.532 148.122C483.532 148.119 483.532 148.116 483.532 148.113C483.532 148.11 483.532 148.107 483.532 148.104C483.532 148.102 483.532 148.099 483.532 148.096C483.532 148.093 483.532 148.09 483.532 148.087C483.532 148.084 483.532 148.081 483.532 148.078C483.532 148.075 483.532 148.073 483.532 148.07C483.532 148.067 483.532 148.064 483.532 148.061C483.532 148.058 483.532 148.055 483.532 148.052C483.532 148.049 483.532 148.046 483.532 148.044C483.532 148.041 483.532 148.038 483.532 148.035C483.532 148.032 483.532 148.029 483.532 148.026C483.532 148.023 483.532 148.02 483.532 148.017C483.532 148.015 483.532 148.012 483.532 148.009C483.532 148.006 483.532 148.003 483.532 148C483.532 147.997 483.532 147.994 483.532 147.991C483.532 147.988 483.532 147.986 483.532 147.983C483.532 147.98 483.532 147.977 483.532 147.974C483.532 147.971 483.532 147.968 483.532 147.965C483.532 147.962 483.532 147.959 483.532 147.957C483.532 147.954 483.532 147.951 483.532 147.948C483.532 147.945 483.532 147.942 483.532 147.939C483.532 147.936 483.532 147.933 483.532 147.93C483.532 147.928 483.532 147.925 483.532 147.922C483.532 147.919 483.532 147.916 483.532 147.913C483.532 147.91 483.532 147.907 483.532 147.904C483.532 147.901 483.532 147.899 483.532 147.896C483.532 147.893 483.532 147.89 483.532 147.887C483.532 147.884 483.532 147.881 483.532 147.878C483.532 147.875 483.532 147.872 483.532 147.87C483.532 147.867 483.532 147.864 483.532 147.861C483.532 147.858 483.532 147.855 483.532 147.852C483.532 147.849 483.532 147.846 483.532 147.843C483.532 147.84 483.532 147.838 483.532 147.835C483.532 147.832 483.532 147.829 483.532 147.826C483.532 147.823 483.532 147.82 483.532 147.817C483.532 147.814 483.532 147.811 483.532 147.809C483.532 147.806 483.532 147.803 483.532 147.8C483.532 147.797 483.532 147.794 483.532 147.791C483.532 147.788 483.532 147.785 483.532 147.782C483.532 147.779 483.532 147.777 483.532 147.774C483.532 147.771 483.532 147.768 483.532 147.765C483.532 147.762 483.532 147.759 483.532 147.756C483.532 147.753 483.532 147.75 483.532 147.747C483.532 147.745 483.532 147.742 483.532 147.739C483.532 147.736 483.532 147.733 483.532 147.73C483.532 147.727 483.532 147.724 483.532 147.721C483.532 147.718 483.532 147.716 483.532 147.713C483.532 147.71 483.532 147.707 483.532 147.704C483.532 147.701 483.532 147.698 483.532 147.695C483.532 147.692 483.532 147.689 483.532 147.686C483.532 147.684 483.532 147.681 483.532 147.678C483.532 147.675 483.532 147.672 483.532 147.669C483.532 147.666 483.532 147.663 483.532 147.66C483.532 147.657 483.532 147.654 483.532 147.652C483.532 147.649 483.532 147.646 483.532 147.643C483.532 147.64 483.532 147.637 483.532 147.634C483.532 147.631 483.532 147.628 483.532 147.625C483.532 147.622 483.532 147.62 483.532 147.617C483.532 147.614 483.532 147.611 483.532 147.608C483.532 147.605 483.532 147.602 483.532 147.599C483.532 147.596 483.532 147.593 483.532 147.59C483.532 147.587 483.532 147.585 483.532 147.582C483.532 147.579 483.532 147.576 483.532 147.573C483.532 147.57 483.532 147.567 483.532 147.564C483.532 147.561 483.532 147.558 483.532 147.555C483.532 147.553 483.532 147.55 483.532 147.547C483.532 147.544 483.532 147.541 483.532 147.538C483.532 147.535 483.532 147.532 483.532 147.529C483.532 147.526 483.532 147.523 483.532 147.521C483.532 147.518 483.532 147.515 483.532 147.512C483.532 147.509 483.532 147.506 483.532 147.503C483.532 147.5 483.532 147.497 483.532 147.494C483.532 147.491 483.532 147.488 483.532 147.486C483.532 147.483 483.532 147.48 483.532 147.477C483.532 147.474 483.532 147.471 483.532 147.468C483.532 147.465 483.532 147.462 483.532 147.459C483.532 147.456 483.532 147.453 483.532 147.451C483.532 147.448 483.532 147.445 483.532 147.442C483.532 147.439 483.532 147.436 483.532 147.433C483.532 147.43 483.532 147.427 483.532 147.424C483.532 147.421 483.532 147.418 483.532 147.416C483.532 147.413 483.532 147.41 483.532 147.407C483.532 147.404 483.532 147.401 483.532 147.398C483.532 147.395 483.532 147.392 483.532 147.389C483.532 147.386 483.532 147.383 483.532 147.381C483.532 147.378 483.532 147.375 483.532 147.372C483.532 147.369 483.532 147.366 483.532 147.363C483.532 147.36 483.532 147.357 483.532 147.354C483.532 147.351 483.532 147.348 483.532 147.346C483.532 147.343 483.532 147.34 483.532 147.337C483.532 147.334 483.532 147.331 483.532 147.328C483.532 147.325 483.532 147.322 483.532 147.319C483.532 147.316 483.532 147.313 483.532 147.311C483.532 147.308 483.532 147.305 483.532 147.302C483.532 147.299 483.532 147.296 483.532 147.293C483.532 147.29 483.532 147.287 483.532 147.284C483.532 147.281 483.532 147.278 483.532 147.275C483.532 147.273 483.532 147.27 483.532 147.267C483.532 147.264 483.532 147.261 483.532 147.258C483.532 147.255 483.532 147.252 483.532 147.249C483.532 147.246 483.532 147.243 483.532 147.24C483.532 147.238 483.532 147.235 483.532 147.232C483.532 147.229 483.532 147.226 483.532 147.223C483.532 147.22 483.532 147.217 483.532 147.214C483.532 147.211 483.532 147.208 483.532 147.205C483.532 147.202 483.532 147.2 483.532 147.197C483.532 147.194 483.532 147.191 483.532 147.188C483.532 147.185 483.532 147.182 483.532 147.179C483.532 147.176 483.532 147.173 483.532 147.17C483.532 147.167 483.532 147.164 483.532 147.162C483.532 147.159 483.532 147.156 483.532 147.153C483.532 147.15 483.532 147.147 483.532 147.144C483.532 147.141 483.532 147.138 483.532 147.135C483.532 147.132 483.532 147.129 483.532 147.126C483.532 147.124 483.532 147.121 483.532 147.118C483.532 147.115 483.532 147.112 483.532 147.109C483.532 147.106 483.532 147.103 483.532 147.1C483.532 147.097 483.532 147.094 483.532 147.091C483.532 147.088 483.532 147.086 483.532 147.083C483.532 147.08 483.532 147.077 483.532 147.074C483.532 147.071 483.532 147.068 483.532 147.065C483.532 147.062 483.532 147.059 483.532 147.056C483.532 147.053 483.532 147.05 483.532 147.047C483.532 147.045 483.532 147.042 483.532 147.039C483.532 147.036 483.532 147.033 483.532 147.03C483.532 147.027 483.532 147.024 483.532 147.021C483.532 147.018 483.532 147.015 483.532 147.012C483.532 147.009 483.532 147.006 483.532 147.004C483.532 147.001 483.532 146.998 483.532 146.995C483.532 146.992 483.532 146.989 483.532 146.986C483.532 146.983 483.532 146.98 483.532 146.977C483.532 146.974 483.532 146.971 483.532 146.968C483.532 146.965 483.532 146.963 483.532 146.96C483.532 146.957 483.532 146.954 483.532 146.951C483.532 146.948 483.532 146.945 483.532 146.942C483.532 146.939 483.532 146.936 483.532 146.933C483.532 146.93 483.532 146.927 483.532 146.924C483.532 146.922 483.532 146.919 483.532 146.916C483.532 146.913 483.532 146.91 483.532 146.907C483.532 146.904 483.532 146.901 483.532 146.898C483.532 146.895 483.532 146.892 483.532 146.889C483.532 146.886 483.532 146.883 483.532 146.88C483.532 146.878 483.532 146.875 483.532 146.872C483.532 146.869 483.532 146.866 483.532 146.863C483.532 146.86 483.532 146.857 483.532 146.854C483.532 146.851 483.532 146.848 483.532 146.845H480.675ZM480.677 151.317C480.745 152.819 480.916 154.263 481.192 155.645L483.994 155.084C483.748 153.855 483.593 152.556 483.531 151.187L480.677 151.317ZM482.353 156.772L493.809 158.731L494.291 155.915L482.834 153.956L482.353 156.772ZM492.621 157.323V177.396H495.478V157.323H492.621ZM494.05 175.968H453.903V178.825H494.05V175.968ZM455.061 176.56C454.274 175.471 453.399 173.978 452.438 172.057L449.883 173.335C450.881 175.331 451.834 176.972 452.744 178.233L455.061 176.56ZM452.438 172.057C451.511 170.202 450.87 168.364 450.505 166.541L447.704 167.101C448.123 169.195 448.853 171.274 449.883 173.335L452.438 172.057ZM447.991 165.927C444.894 169.782 441.441 172.756 437.638 174.876L439.029 177.371C443.19 175.052 446.918 171.824 450.218 167.716L447.991 165.927ZM437.638 174.876C433.929 176.943 429.129 178.024 423.156 178.024V180.881C429.454 180.881 434.773 179.743 439.029 177.371L437.638 174.876ZM433.731 156.597C436.404 156.597 439.062 156.069 441.697 155.028L440.648 152.371C438.322 153.289 436.019 153.74 433.731 153.74V156.597ZM441.715 155.021C444.457 153.896 446.821 152.239 448.794 150.055L446.673 148.14C444.99 150.004 442.981 151.414 440.631 152.378L441.715 155.021ZM449.162 149.097V133.822H446.305V149.097H449.162ZM447.734 132.393H437.06V135.25H447.734V132.393ZM437.06 132.393C432.236 132.393 428.287 133.445 425.4 135.739L427.178 137.976C429.383 136.223 432.614 135.25 437.06 135.25V132.393ZM425.386 135.751C422.558 138.058 421.14 141.148 421.14 144.887H423.996C423.996 141.967 425.059 139.704 427.192 137.964L425.386 135.751ZM421.14 144.887C421.14 148.428 422.313 151.36 424.761 153.502L426.642 151.352C424.912 149.838 423.996 147.743 423.996 144.887H421.14ZM424.761 153.502C427.155 155.597 430.185 156.597 433.731 156.597V153.74C430.749 153.74 428.426 152.913 426.642 151.352L424.761 153.502ZM504.602 177.396H503.174V178.825H504.602V177.396ZM504.602 157.323L504.253 155.938L503.174 156.21V157.323H504.602ZM517.038 154.189L517.387 155.575L518.466 155.303V154.189H517.038ZM517.038 94.7517H518.466V93.5942L517.334 93.3542L517.038 94.7517ZM502.252 91.6182H500.824V92.7757L501.956 93.0156L502.252 91.6182ZM502.252 71.4466V70.0182H500.824V71.4466H502.252ZM551.408 71.4466H552.837V70.0182H551.408V71.4466ZM551.408 154.189H549.98V155.3L551.056 155.574L551.408 154.189ZM563.746 157.323H565.175V156.212L564.098 155.938L563.746 157.323ZM563.746 177.396V178.825H565.175V177.396H563.746ZM516.059 51.3729H514.63V52.8014H516.059V51.3729ZM516.059 24.6406V23.2122H514.63V24.6406H516.059ZM551.408 24.6406H552.837V23.2122H551.408V24.6406ZM551.408 51.3729V52.8014H552.837V51.3729H551.408ZM506.031 177.396V157.323H503.174V177.396H506.031ZM504.951 158.708L517.387 155.575L516.689 152.804L504.253 155.938L504.951 158.708ZM518.466 154.189V94.7517H515.61V154.189H518.466ZM517.334 93.3542L502.548 90.2208L501.956 93.0156L516.742 96.1491L517.334 93.3542ZM503.681 91.6182V71.4466H500.824V91.6182H503.681ZM502.252 72.8751H551.408V70.0182H502.252V72.8751ZM549.98 71.4466V154.189H552.837V71.4466H549.98ZM551.056 155.574L563.394 158.707L564.098 155.938L551.76 152.805L551.056 155.574ZM562.318 157.323V177.396H565.175V157.323H562.318ZM563.746 175.968H504.602V178.825H563.746V175.968ZM517.487 51.3729V24.6406H514.63V51.3729H517.487ZM516.059 26.0691H551.408V23.2122H516.059V26.0691ZM549.98 24.6406V51.3729H552.837V24.6406H549.98ZM551.408 49.9445H516.059V52.8014H551.408V49.9445Z" fill="black" mask="url(#path-7-outside-4_8302_6304)"/>
<path d="M12.832 74.7958L96.0099 49.3047" stroke="#DBDBDB" stroke-width="6.66058"/>
<path d="M11.957 74.7949L96.886 90.4185" stroke="#DBDBDB" stroke-width="6.66058"/>
<path d="M11.957 146.336L96.886 169.36" stroke="#DBDBDB" stroke-width="6.66058"/>
<path d="M11.957 73.1523L96.0104 129.891" stroke="#DBDBDB" stroke-width="6.66058"/>
<path d="M11.957 145.676L96.0104 129.905M11.957 73.1523L96.0104 171.005" stroke="#DBDBDB" stroke-width="6.66058"/>
<path d="M12.832 146.336L96.8854 90.4199" stroke="#DBDBDB" stroke-width="6.66058"/>
<path d="M12.832 146.335L96.0099 49.3047" stroke="#DBDBDB" stroke-width="6.66058"/>
<path d="M96.0117 50.9492L151.172 110.154L96.0117 91.0521" stroke="#DBDBDB" stroke-width="6.66058"/>
<path d="M95.1367 129.889L150.297 110.154" stroke="#DBDBDB" stroke-width="6.66058"/>
<path d="M96.0117 171.004L150.296 110.154" stroke="#DBDBDB" stroke-width="6.66058"/>
<path d="M85.8196 134.451L71.4118 136.957L89.5781 158.881L85.8196 163.893M85.8196 163.893L63.8947 138.209L25.0565 145.726L83.9403 162.013L85.8196 163.893ZM85.1931 168.904L22.5508 151.991M88.3253 120.67L72.6647 110.02L88.9517 98.7447M85.1931 93.7333L67.0269 105.635L57.6305 99.3711L67.0269 88.0955L84.5667 91.2276M90.8309 60.5329L72.0382 82.4577L85.8196 84.9634M100.854 61.7857L139.066 102.503L108.371 91.854M105.239 97.4919L139.066 109.394L105.865 121.922M108.997 128.813L138.439 118.164L102.107 158.255M145.956 119.417L107.118 162.013M26.3093 73.6878L85.8196 55.5215L63.8947 81.2048L26.3093 73.6878ZM58.8833 86.8427L51.3663 95.6126L30.0679 81.2048L58.8833 86.8427ZM46.9813 100.624L30.6943 89.3484L43.2228 105.009L46.9813 100.624ZM52.6191 104.383L48.2341 110.02L52.6191 115.032L60.7626 110.02L52.6191 104.383ZM67.0269 113.779L56.3777 120.67L66.4004 131.945L84.5667 128.187L85.1931 126.307L67.0269 113.779ZM43.2228 115.032L30.6943 130.066L46.9813 119.417L43.2228 115.032Z" stroke="black" stroke-width="1.25285"/>
<path d="M17.5391 84.3379L39.4639 110.021L18.1655 135.078M51.3659 123.803L29.4411 138.837L59.5094 133.199L51.3659 123.803Z" stroke="black" stroke-width="1.25285"/>
<path d="M96.7725 39.6318C103.352 39.6319 108.617 44.6324 108.617 50.7188C108.617 56.805 103.352 61.8046 96.7725 61.8047C90.193 61.8047 84.9268 56.8051 84.9268 50.7188C84.9268 44.6324 90.193 39.6318 96.7725 39.6318Z" fill="#DBDBDB" stroke="black" stroke-width="1.25285"/>
<path d="M106.492 57.4023L145.957 99.9991" stroke="black" stroke-width="1.25285"/>
<path d="M97.2119 78.9355C103.822 78.9355 109.111 83.9589 109.111 90.0732C109.111 96.1876 103.822 101.211 97.2119 101.211C90.6024 101.211 85.3125 96.1874 85.3125 90.0732C85.3125 83.959 90.6024 78.9358 97.2119 78.9355Z" fill="#DBDBDB" stroke="black" stroke-width="1.2586"/>
<path d="M97.2119 118.236C103.822 118.236 109.111 123.26 109.111 129.374C109.111 135.488 103.822 140.512 97.2119 140.512C90.6024 140.511 85.3125 135.488 85.3125 129.374C85.3125 123.26 90.6024 118.237 97.2119 118.236Z" fill="#DBDBDB" stroke="black" stroke-width="1.2586"/>
<path d="M152.563 98.8789C159.173 98.8789 164.463 103.902 164.463 110.017C164.463 116.131 159.173 121.154 152.563 121.154C145.954 121.154 140.664 116.131 140.664 110.017C140.664 103.902 145.954 98.8791 152.563 98.8789Z" fill="#DBDBDB" stroke="black" stroke-width="1.2586"/>
<path d="M13.1572 134.414C19.7669 134.414 25.0566 139.437 25.0566 145.552C25.0566 151.666 19.7669 156.689 13.1572 156.689C6.54775 156.689 1.25781 151.666 1.25781 145.552C1.25781 139.438 6.54775 134.414 13.1572 134.414Z" fill="#DBDBDB" stroke="black" stroke-width="1.2586"/>
<path d="M13.1572 62.873C19.7669 62.873 25.0566 67.8964 25.0566 74.0107C25.0566 80.1251 19.7669 85.1484 13.1572 85.1484C6.54775 85.1482 1.25781 80.1249 1.25781 74.0107C1.25781 67.8965 6.54775 62.8733 13.1572 62.873Z" fill="#DBDBDB" stroke="black" stroke-width="1.2586"/>
<path d="M97.2119 157.537C103.822 157.537 109.111 162.56 109.111 168.675C109.111 174.789 103.822 179.812 97.2119 179.812C90.6024 179.812 85.3125 174.789 85.3125 168.675C85.3125 162.561 90.6024 157.537 97.2119 157.537Z" fill="#DBDBDB" stroke="black" stroke-width="1.2586"/>
<path d="M23.2852 68.1837L84.9566 49.3047" stroke="black" stroke-width="1.2586"/>
<path d="M97.2119 39.6348C103.822 39.6348 109.111 44.6581 109.111 50.7725C109.111 56.8868 103.822 61.9102 97.2119 61.9102C90.6024 61.9099 85.3125 56.8867 85.3125 50.7725C85.3125 44.6583 90.6024 39.635 97.2119 39.6348Z" fill="#DBDBDB" stroke="black" stroke-width="1.2586"/>
</svg>
