<svg width="642" height="151" viewBox="0 0 642 151" fill="none" xmlns="http://www.w3.org/2000/svg">
<mask id="path-1-outside-1_6504_1251" maskUnits="userSpaceOnUse" x="557.594" y="22.7363" width="84" height="49" fill="black">
<rect fill="white" x="557.594" y="22.7363" width="84" height="49"/>
<path d="M577.21 70.3758C573.596 70.3758 570.389 70.0307 567.587 69.3405C564.786 68.6502 561.994 67.351 559.213 65.4427V53.932H567.465L568.379 59.8396C569.029 60.5704 570.176 61.1896 571.82 61.6971C573.464 62.1844 575.261 62.428 577.21 62.428C578.57 62.428 579.707 62.2656 580.62 61.9408C581.534 61.5956 582.224 61.0983 582.691 60.4486C583.158 59.799 583.392 59.0174 583.392 58.1039C583.392 57.2309 583.168 56.4494 582.722 55.7591C582.295 55.0689 581.585 54.4193 580.59 53.8102C579.595 53.1809 578.255 52.5414 576.57 51.8918C572.774 50.6737 569.658 49.4354 567.222 48.1767C564.786 46.918 562.969 45.4259 561.771 43.7003C560.594 41.9748 560.005 39.833 560.005 37.2751C560.005 34.8187 560.705 32.6769 562.106 30.8498C563.507 29.0025 565.435 27.5509 567.892 26.4953C570.348 25.4396 573.16 24.8814 576.327 24.8205C579.94 24.7393 583.138 25.1047 585.919 25.9167C588.7 26.7084 591.157 27.9164 593.288 29.5404V40.2289H585.371L584.122 34.2909C583.432 33.9457 582.448 33.6311 581.169 33.3469C579.89 33.0626 578.529 32.9205 577.088 32.9205C575.85 32.9205 574.743 33.0829 573.769 33.4078C572.815 33.7326 572.053 34.2198 571.485 34.8694C570.937 35.5191 570.663 36.3311 570.663 37.3055C570.663 38.0973 570.896 38.8078 571.363 39.4371C571.83 40.0462 572.652 40.6654 573.83 41.2947C575.007 41.9037 576.652 42.6142 578.763 43.4263C583.798 44.9083 587.614 46.7658 590.213 48.9989C592.831 51.2117 594.141 54.2264 594.141 58.043C594.141 60.6618 593.43 62.8949 592.009 64.7423C590.588 66.5694 588.609 67.9701 586.071 68.9446C583.534 69.8987 580.58 70.3758 577.21 70.3758ZM609.586 69.7363V63.4938L614.215 62.5193V33.6818H607.364L607.089 38.4627H599.02V25.399H640.221V38.4627H632.06L631.816 33.6818H624.904V62.5193L629.532 63.4938V69.7363H609.586Z"/>
</mask>
<path d="M577.21 70.3758C573.596 70.3758 570.389 70.0307 567.587 69.3405C564.786 68.6502 561.994 67.351 559.213 65.4427V53.932H567.465L568.379 59.8396C569.029 60.5704 570.176 61.1896 571.82 61.6971C573.464 62.1844 575.261 62.428 577.21 62.428C578.57 62.428 579.707 62.2656 580.62 61.9408C581.534 61.5956 582.224 61.0983 582.691 60.4486C583.158 59.799 583.392 59.0174 583.392 58.1039C583.392 57.2309 583.168 56.4494 582.722 55.7591C582.295 55.0689 581.585 54.4193 580.59 53.8102C579.595 53.1809 578.255 52.5414 576.57 51.8918C572.774 50.6737 569.658 49.4354 567.222 48.1767C564.786 46.918 562.969 45.4259 561.771 43.7003C560.594 41.9748 560.005 39.833 560.005 37.2751C560.005 34.8187 560.705 32.6769 562.106 30.8498C563.507 29.0025 565.435 27.5509 567.892 26.4953C570.348 25.4396 573.16 24.8814 576.327 24.8205C579.94 24.7393 583.138 25.1047 585.919 25.9167C588.7 26.7084 591.157 27.9164 593.288 29.5404V40.2289H585.371L584.122 34.2909C583.432 33.9457 582.448 33.6311 581.169 33.3469C579.89 33.0626 578.529 32.9205 577.088 32.9205C575.85 32.9205 574.743 33.0829 573.769 33.4078C572.815 33.7326 572.053 34.2198 571.485 34.8694C570.937 35.5191 570.663 36.3311 570.663 37.3055C570.663 38.0973 570.896 38.8078 571.363 39.4371C571.83 40.0462 572.652 40.6654 573.83 41.2947C575.007 41.9037 576.652 42.6142 578.763 43.4263C583.798 44.9083 587.614 46.7658 590.213 48.9989C592.831 51.2117 594.141 54.2264 594.141 58.043C594.141 60.6618 593.43 62.8949 592.009 64.7423C590.588 66.5694 588.609 67.9701 586.071 68.9446C583.534 69.8987 580.58 70.3758 577.21 70.3758ZM609.586 69.7363V63.4938L614.215 62.5193V33.6818H607.364L607.089 38.4627H599.02V25.399H640.221V38.4627H632.06L631.816 33.6818H624.904V62.5193L629.532 63.4938V69.7363H609.586Z" fill="white"/>
<path d="M559.213 65.4427H558.125V66.0158L558.597 66.3401L559.213 65.4427ZM559.213 53.932V52.8437H558.125V53.932H559.213ZM567.465 53.932L568.541 53.7657L568.398 52.8437H567.465V53.932ZM568.379 59.8396L567.303 60.0059L567.352 60.3229L567.566 60.5627L568.379 59.8396ZM571.82 61.6971L571.499 62.7372L571.511 62.7407L571.82 61.6971ZM580.62 61.9408L580.985 62.9662L580.995 62.9626L581.005 62.9589L580.62 61.9408ZM582.722 55.7591L581.796 56.331L581.802 56.3408L581.808 56.3504L582.722 55.7591ZM580.59 53.8102L580.008 54.73L580.015 54.7342L580.022 54.7384L580.59 53.8102ZM576.57 51.8918L576.962 50.8763L576.933 50.865L576.903 50.8555L576.57 51.8918ZM561.771 43.7003L560.872 44.3138L560.877 44.3209L561.771 43.7003ZM562.106 30.8498L562.97 31.512L562.973 31.5074L562.106 30.8498ZM576.327 24.8205L576.348 25.9086L576.351 25.9085L576.327 24.8205ZM585.919 25.9167L585.614 26.9615L585.621 26.9635L585.919 25.9167ZM593.288 29.5404H594.377V29.0014L593.948 28.6747L593.288 29.5404ZM593.288 40.2289V41.3172H594.377V40.2289H593.288ZM585.371 40.2289L584.306 40.4528L584.488 41.3172H585.371V40.2289ZM584.122 34.2909L585.187 34.0669L585.079 33.5525L584.609 33.3174L584.122 34.2909ZM573.769 33.4078L573.425 32.3752L573.418 32.3775L573.769 33.4078ZM571.485 34.8694L570.666 34.1528L570.659 34.1601L570.653 34.1676L571.485 34.8694ZM571.363 39.4371L570.489 40.0856L570.494 40.0925L570.499 40.0993L571.363 39.4371ZM573.83 41.2947L573.317 42.2545L573.323 42.258L573.33 42.2614L573.83 41.2947ZM578.763 43.4263L578.372 44.4421L578.413 44.4579L578.456 44.4703L578.763 43.4263ZM590.213 48.9989L589.503 49.8243L589.51 49.8302L590.213 48.9989ZM592.009 64.7423L592.868 65.4105L592.872 65.4059L592.009 64.7423ZM586.071 68.9446L586.454 69.9633L586.461 69.9606L586.071 68.9446ZM577.21 69.2875C573.663 69.2875 570.546 68.9485 567.848 68.2837L567.327 70.3972C570.232 71.1129 573.53 71.4642 577.21 71.4642V69.2875ZM567.848 68.2837C565.193 67.6296 562.52 66.3918 559.829 64.5453L558.597 66.3401C561.469 68.3101 564.379 69.6709 567.327 70.3972L567.848 68.2837ZM560.301 65.4427V53.932H558.125V65.4427H560.301ZM559.213 55.0204H567.465V52.8437H559.213V55.0204ZM566.39 54.0984L567.303 60.0059L569.455 59.6733L568.541 53.7657L566.39 54.0984ZM567.566 60.5627C568.413 61.5166 569.79 62.2097 571.499 62.7371L572.141 60.6572C570.561 60.1696 569.644 59.6243 569.192 59.1166L567.566 60.5627ZM571.511 62.7407C573.268 63.2613 575.17 63.5163 577.21 63.5163V61.3396C575.352 61.3396 573.661 61.1074 572.129 60.6536L571.511 62.7407ZM577.21 63.5163C578.648 63.5163 579.918 63.3457 580.985 62.9662L580.256 60.9153C579.496 61.1854 578.492 61.3396 577.21 61.3396V63.5163ZM581.005 62.9589C582.074 62.5549 582.958 61.9425 583.575 61.0838L581.807 59.8134C581.491 60.254 580.994 60.6364 580.236 60.9226L581.005 62.9589ZM583.575 61.0838C584.193 60.2236 584.48 59.2118 584.48 58.1039H582.303C582.303 58.8231 582.123 59.3744 581.807 59.8134L583.575 61.0838ZM584.48 58.1039C584.48 57.0347 584.203 56.0453 583.635 55.1679L581.808 56.3504C582.133 56.8534 582.303 57.4271 582.303 58.1039H584.48ZM583.648 55.1872C583.101 54.3024 582.239 53.5438 581.158 52.882L580.022 54.7384C580.93 55.2947 581.489 55.8354 581.796 56.331L583.648 55.1872ZM581.172 52.8905C580.094 52.2086 578.682 51.5395 576.962 50.8763L576.179 52.9073C577.829 53.5433 579.096 54.1532 580.008 54.73L581.172 52.8905ZM576.903 50.8555C573.141 49.6484 570.086 48.4314 567.721 47.2098L566.722 49.1436C569.23 50.4394 572.407 51.6991 576.238 52.9281L576.903 50.8555ZM567.721 47.2098C565.396 46.0086 563.735 44.6217 562.665 43.0798L560.877 44.3209C562.202 46.2302 564.175 47.8275 566.722 49.1436L567.721 47.2098ZM562.67 43.0869C561.641 41.5792 561.093 39.6638 561.093 37.2751H558.916C558.916 40.0022 559.546 42.3703 560.872 44.3138L562.67 43.0869ZM561.093 37.2751C561.093 35.041 561.725 33.136 562.97 31.512L561.242 30.1877C559.686 32.2179 558.916 34.5964 558.916 37.2751H561.093ZM562.973 31.5074C564.244 29.8317 566.011 28.488 568.321 27.4952L567.462 25.4954C564.859 26.6138 562.77 28.1732 561.239 30.1923L562.973 31.5074ZM568.321 27.4952C570.627 26.5044 573.296 25.9673 576.348 25.9086L576.306 23.7323C573.024 23.7954 570.069 24.3749 567.462 25.4954L568.321 27.4952ZM576.351 25.9085C579.88 25.8292 582.962 26.1872 585.614 26.9614L586.224 24.872C583.313 24.0221 580.001 23.6493 576.302 23.7324L576.351 25.9085ZM585.621 26.9635C588.282 27.7209 590.613 28.8708 592.629 30.4061L593.948 28.6747C591.7 26.9619 589.119 25.696 586.217 24.8699L585.621 26.9635ZM592.2 29.5404V40.2289H594.377V29.5404H592.2ZM593.288 39.1405H585.371V41.3172H593.288V39.1405ZM586.436 40.0049L585.187 34.0669L583.057 34.5148L584.306 40.4528L586.436 40.0049ZM584.609 33.3174C583.803 32.9144 582.719 32.5765 581.405 32.2844L580.932 34.4093C582.176 34.6856 583.061 34.9771 583.636 35.2643L584.609 33.3174ZM581.405 32.2844C580.041 31.9814 578.601 31.8322 577.088 31.8322V34.0089C578.458 34.0089 579.738 34.1439 580.932 34.4093L581.405 32.2844ZM577.088 31.8322C575.756 31.8322 574.53 32.0068 573.425 32.3753L574.113 34.4403C574.956 34.1591 575.943 34.0089 577.088 34.0089V31.8322ZM573.418 32.3775C572.314 32.7535 571.38 33.3367 570.666 34.1528L572.304 35.5861C572.727 35.1029 573.316 34.7117 574.12 34.438L573.418 32.3775ZM570.653 34.1676C569.915 35.042 569.574 36.114 569.574 37.3055H571.751C571.751 36.5482 571.958 35.9961 572.317 35.5713L570.653 34.1676ZM569.574 37.3055C569.574 38.3282 569.882 39.2667 570.489 40.0856L572.237 38.7887C571.911 38.349 571.751 37.8663 571.751 37.3055H569.574ZM570.499 40.0993C571.106 40.8908 572.089 41.5984 573.317 42.2545L574.343 40.3348C573.215 39.7323 572.554 39.2015 572.227 38.775L570.499 40.0993ZM573.33 42.2614C574.559 42.8971 576.246 43.6242 578.372 44.4421L579.154 42.4105C577.058 41.6043 575.456 40.9103 574.33 40.328L573.33 42.2614ZM578.456 44.4703C583.413 45.9296 587.067 47.7308 589.503 49.8243L590.922 48.1735C588.161 45.8008 584.182 43.8869 579.07 42.3822L578.456 44.4703ZM589.51 49.8302C591.855 51.8112 593.053 54.506 593.053 58.043H595.229C595.229 53.9468 593.808 50.6122 590.915 48.1676L589.51 49.8302ZM593.053 58.043C593.053 60.453 592.403 62.4449 591.147 64.0787L592.872 65.4059C594.457 63.3449 595.229 60.8706 595.229 58.043H593.053ZM591.15 64.0741C589.871 65.7192 588.066 67.0127 585.681 67.9286L586.461 69.9606C589.151 68.9276 591.306 67.4195 592.868 65.4105L591.15 64.0741ZM585.688 67.9259C583.299 68.8243 580.48 69.2875 577.21 69.2875V71.4642C580.68 71.4642 583.768 70.9732 586.454 69.9633L585.688 67.9259ZM609.586 69.7363H608.498V70.8247H609.586V69.7363ZM609.586 63.4938L609.362 62.4288L608.498 62.6107V63.4938H609.586ZM614.215 62.5193L614.439 63.5843L615.303 63.4024V62.5193H614.215ZM614.215 33.6818H615.303V32.5935H614.215V33.6818ZM607.364 33.6818V32.5935H606.336L606.277 33.6195L607.364 33.6818ZM607.089 38.4627V39.551H608.117L608.176 38.525L607.089 38.4627ZM599.02 38.4627H597.931V39.551H599.02V38.4627ZM599.02 25.399V24.3107H597.931V25.399H599.02ZM640.221 25.399H641.309V24.3107H640.221V25.399ZM640.221 38.4627V39.551H641.309V38.4627H640.221ZM632.06 38.4627L630.973 38.5181L631.025 39.551H632.06V38.4627ZM631.816 33.6818L632.903 33.6264L632.85 32.5935H631.816V33.6818ZM624.904 33.6818V32.5935H623.815V33.6818H624.904ZM624.904 62.5193H623.815V63.4024L624.679 63.5843L624.904 62.5193ZM629.532 63.4938H630.621V62.6107L629.756 62.4288L629.532 63.4938ZM629.532 69.7363V70.8247H630.621V69.7363H629.532ZM610.675 69.7363V63.4938H608.498V69.7363H610.675ZM609.811 64.5588L614.439 63.5843L613.991 61.4543L609.362 62.4288L609.811 64.5588ZM615.303 62.5193V33.6818H613.127V62.5193H615.303ZM614.215 32.5935H607.364V34.7702H614.215V32.5935ZM606.277 33.6195L606.003 38.4004L608.176 38.525L608.45 33.7441L606.277 33.6195ZM607.089 37.3744H599.02V39.551H607.089V37.3744ZM600.108 38.4627V25.399H597.931V38.4627H600.108ZM599.02 26.4874H640.221V24.3107H599.02V26.4874ZM639.132 25.399V38.4627H641.309V25.399H639.132ZM640.221 37.3744H632.06V39.551H640.221V37.3744ZM633.147 38.4073L632.903 33.6264L630.729 33.7372L630.973 38.5181L633.147 38.4073ZM631.816 32.5935H624.904V34.7702H631.816V32.5935ZM623.815 33.6818V62.5193H625.992V33.6818H623.815ZM624.679 63.5843L629.308 64.5588L629.756 62.4288L625.128 61.4543L624.679 63.5843ZM628.444 63.4938V69.7363H630.621V63.4938H628.444ZM629.532 68.648H609.586V70.8247H629.532V68.648Z" fill="black" mask="url(#path-1-outside-1_6504_1251)"/>
<mask id="path-3-outside-2_6504_1251" maskUnits="userSpaceOnUse" x="435.787" y="25.8574" width="117" height="110" fill="black">
<rect fill="white" x="435.787" y="25.8574" width="117" height="110"/>
<path d="M437.637 133.857V118.875L448.6 116.537V44.8418L437.637 42.5031V27.4479H448.6H474.691L517.371 95.5617H517.81V44.8418L503.851 42.5031V27.4479H540.539H551.574V42.5031L540.539 44.8418V133.857H515.252L471.767 67.2053H471.329V116.537L485.361 118.875V133.857H437.637Z"/>
</mask>
<path d="M437.637 133.857V118.875L448.6 116.537V44.8418L437.637 42.5031V27.4479H448.6H474.691L517.371 95.5617H517.81V44.8418L503.851 42.5031V27.4479H540.539H551.574V42.5031L540.539 44.8418V133.857H515.252L471.767 67.2053H471.329V116.537L485.361 118.875V133.857H437.637Z" fill="white"/>
<path d="M437.637 133.857H436.549V134.946H437.637V133.857ZM437.637 118.875L437.41 117.811L436.549 117.995V118.875H437.637ZM448.6 116.537L448.827 117.601L449.688 117.417V116.537H448.6ZM448.6 44.8418H449.688V43.9611L448.827 43.7774L448.6 44.8418ZM437.637 42.5031H436.549V43.3838L437.41 43.5675L437.637 42.5031ZM437.637 27.4479V26.3596H436.549V27.4479H437.637ZM474.691 27.4479L475.613 26.87L475.293 26.3596H474.691V27.4479ZM517.371 95.5617L516.449 96.1396L516.769 96.65H517.371V95.5617ZM517.81 95.5617V96.65H518.898V95.5617H517.81ZM517.81 44.8418H518.898V43.9206L517.99 43.7684L517.81 44.8418ZM503.851 42.5031H502.763V43.4243L503.671 43.5765L503.851 42.5031ZM503.851 27.4479V26.3596H502.763V27.4479H503.851ZM551.574 27.4479H552.663V26.3596H551.574V27.4479ZM551.574 42.5031L551.8 43.5678L552.663 43.385V42.5031H551.574ZM540.539 44.8418L540.313 43.7771L539.451 43.9599V44.8418H540.539ZM540.539 133.857V134.946H541.627V133.857H540.539ZM515.252 133.857L514.34 134.452L514.663 134.946H515.252V133.857ZM471.767 67.2053L472.679 66.6106L472.357 66.117H471.767V67.2053ZM471.329 67.2053V66.117H470.24V67.2053H471.329ZM471.329 116.537H470.24V117.459L471.15 117.61L471.329 116.537ZM485.361 118.875H486.449V117.953L485.54 117.802L485.361 118.875ZM485.361 133.857V134.946H486.449V133.857H485.361ZM438.726 133.857V118.875H436.549V133.857H438.726ZM437.864 119.94L448.827 117.601L448.373 115.472L437.41 117.811L437.864 119.94ZM449.688 116.537V44.8418H447.512V116.537H449.688ZM448.827 43.7774L437.864 41.4387L437.41 43.5675L448.373 45.9062L448.827 43.7774ZM438.726 42.5031V27.4479H436.549V42.5031H438.726ZM437.637 28.5362H448.6V26.3596H437.637V28.5362ZM448.6 28.5362H474.691V26.3596H448.6V28.5362ZM473.768 28.0258L516.449 96.1396L518.294 94.9838L475.613 26.87L473.768 28.0258ZM517.371 96.65H517.81V94.4733H517.371V96.65ZM518.898 95.5617V44.8418H516.722V95.5617H518.898ZM517.99 43.7684L504.031 41.4297L503.671 43.5765L517.63 45.9152L517.99 43.7684ZM504.939 42.5031V27.4479H502.763V42.5031H504.939ZM503.851 28.5362H540.539V26.3596H503.851V28.5362ZM540.539 28.5362H551.574V26.3596H540.539V28.5362ZM550.486 27.4479V42.5031H552.663V27.4479H550.486ZM551.349 41.4384L540.313 43.7771L540.765 45.9065L551.8 43.5678L551.349 41.4384ZM539.451 44.8418V133.857H541.627V44.8418H539.451ZM540.539 132.769H515.252V134.946H540.539V132.769ZM516.164 133.263L472.679 66.6106L470.856 67.8L514.34 134.452L516.164 133.263ZM471.767 66.117H471.329V68.2936H471.767V66.117ZM470.24 67.2053V116.537H472.417V67.2053H470.24ZM471.15 117.61L485.182 119.949L485.54 117.802L471.508 115.463L471.15 117.61ZM484.273 118.875V133.857H486.449V118.875H484.273ZM485.361 132.769H437.637V134.946H485.361V132.769Z" fill="black" mask="url(#path-3-outside-2_6504_1251)"/>
<mask id="path-5-outside-3_6504_1251" maskUnits="userSpaceOnUse" x="132.951" y="25.8574" width="154" height="110" fill="black">
<rect fill="white" x="132.951" y="25.8574" width="154" height="110"/>
<path d="M134.289 133.857V118.875L145.252 116.537V44.8418L134.289 42.5031V27.4479H145.252H184.498L210.223 97.5349H210.662L235.656 27.4479H285.28V42.5031L274.244 44.8418V116.537L285.28 118.875V133.857H237.629V118.875L249.103 116.537V102.651L249.688 52.5886L249.25 52.5155L219.139 133.857H198.968L168.419 53.4656L167.908 53.5387L169.662 99.1428V116.537L182.013 118.875V133.857H134.289Z"/>
</mask>
<path d="M134.289 133.857V118.875L145.252 116.537V44.8418L134.289 42.5031V27.4479H145.252H184.498L210.223 97.5349H210.662L235.656 27.4479H285.28V42.5031L274.244 44.8418V116.537L285.28 118.875V133.857H237.629V118.875L249.103 116.537V102.651L249.688 52.5886L249.25 52.5155L219.139 133.857H198.968L168.419 53.4656L167.908 53.5387L169.662 99.1428V116.537L182.013 118.875V133.857H134.289Z" fill="white"/>
<path d="M134.289 133.857H133.201V134.946H134.289V133.857ZM134.289 118.875L134.062 117.811L133.201 117.995V118.875H134.289ZM145.252 116.537L145.479 117.601L146.34 117.417V116.537H145.252ZM145.252 44.8418H146.34V43.9611L145.479 43.7774L145.252 44.8418ZM134.289 42.5031H133.201V43.3838L134.062 43.5675L134.289 42.5031ZM134.289 27.4479V26.3596H133.201V27.4479H134.289ZM184.498 27.4479L185.519 27.0729L185.258 26.3596H184.498V27.4479ZM210.223 97.5349L209.201 97.91L209.463 98.6233H210.223V97.5349ZM210.662 97.5349V98.6233H211.429L211.687 97.9005L210.662 97.5349ZM235.656 27.4479V26.3596H234.889L234.631 27.0823L235.656 27.4479ZM285.28 27.4479H286.368V26.3596H285.28V27.4479ZM285.28 42.5031L285.505 43.5678L286.368 43.385V42.5031H285.28ZM274.244 44.8418L274.019 43.7771L273.156 43.9599V44.8418H274.244ZM274.244 116.537H273.156V117.419L274.019 117.601L274.244 116.537ZM285.28 118.875H286.368V117.993L285.505 117.811L285.28 118.875ZM285.28 133.857V134.946H286.368V133.857H285.28ZM237.629 133.857H236.541V134.946H237.629V133.857ZM237.629 118.875L237.412 117.809L236.541 117.986V118.875H237.629ZM249.103 116.537L249.321 117.603L250.192 117.426V116.537H249.103ZM249.103 102.651L248.015 102.638V102.651H249.103ZM249.688 52.5886L250.776 52.6013L250.787 51.6684L249.867 51.5151L249.688 52.5886ZM249.25 52.5155L249.429 51.442L248.541 51.2941L248.229 52.1377L249.25 52.5155ZM219.139 133.857V134.946H219.897L220.16 134.235L219.139 133.857ZM198.968 133.857L197.951 134.244L198.218 134.946H198.968V133.857ZM168.419 53.4656L169.437 53.079L169.127 52.2651L168.265 52.3882L168.419 53.4656ZM167.908 53.5387L167.754 52.4613L166.782 52.6001L166.82 53.5805L167.908 53.5387ZM169.662 99.1428H170.75V99.1219L170.749 99.101L169.662 99.1428ZM169.662 116.537H168.573V117.438L169.459 117.606L169.662 116.537ZM182.013 118.875H183.101V117.974L182.215 117.806L182.013 118.875ZM182.013 133.857V134.946H183.101V133.857H182.013ZM135.378 133.857V118.875H133.201V133.857H135.378ZM134.516 119.94L145.479 117.601L145.025 115.472L134.062 117.811L134.516 119.94ZM146.34 116.537V44.8418H144.164V116.537H146.34ZM145.479 43.7774L134.516 41.4387L134.062 43.5675L145.025 45.9062L145.479 43.7774ZM135.378 42.5031V27.4479H133.201V42.5031H135.378ZM134.289 28.5362H145.252V26.3596H134.289V28.5362ZM145.252 28.5362H184.498V26.3596H145.252V28.5362ZM183.476 27.8229L209.201 97.91L211.245 97.1599L185.519 27.0729L183.476 27.8229ZM210.223 98.6233H210.662V96.4466H210.223V98.6233ZM211.687 97.9005L236.681 27.8135L234.631 27.0823L209.636 97.1694L211.687 97.9005ZM235.656 28.5362H285.28V26.3596H235.656V28.5362ZM284.191 27.4479V42.5031H286.368V27.4479H284.191ZM285.054 41.4384L274.019 43.7771L274.47 45.9065L285.505 43.5678L285.054 41.4384ZM273.156 44.8418V116.537H275.333V44.8418H273.156ZM274.019 117.601L285.054 119.94L285.505 117.811L274.47 115.472L274.019 117.601ZM284.191 118.875V133.857H286.368V118.875H284.191ZM285.28 132.769H237.629V134.946H285.28V132.769ZM238.718 133.857V118.875H236.541V133.857H238.718ZM237.847 119.942L249.321 117.603L248.886 115.47L237.412 117.809L237.847 119.942ZM250.192 116.537V102.651H248.015V116.537H250.192ZM250.192 102.663L250.776 52.6013L248.6 52.5759L248.015 102.638L250.192 102.663ZM249.867 51.5151L249.429 51.442L249.071 53.5891L249.509 53.6622L249.867 51.5151ZM248.229 52.1377L218.119 133.48L220.16 134.235L250.27 52.8933L248.229 52.1377ZM219.139 132.769H198.968V134.946H219.139V132.769ZM199.986 133.471L169.437 53.079L167.402 53.8522L197.951 134.244L199.986 133.471ZM168.265 52.3882L167.754 52.4613L168.062 54.6161L168.573 54.543L168.265 52.3882ZM166.82 53.5805L168.574 99.1846L170.749 99.101L168.995 53.4969L166.82 53.5805ZM168.573 99.1428V116.537H170.75V99.1428H168.573ZM169.459 117.606L181.81 119.945L182.215 117.806L169.864 115.467L169.459 117.606ZM180.925 118.875V133.857H183.101V118.875H180.925ZM182.013 132.769H134.289V134.946H182.013V132.769Z" fill="black" mask="url(#path-5-outside-3_6504_1251)"/>
<path d="M333.613 103.493C330.183 103.493 327.603 104.179 325.809 105.481L325.81 105.482C324.072 106.78 323.219 108.47 323.219 110.596C323.219 112.658 323.946 114.232 325.38 115.382L325.66 115.595C327.08 116.625 328.882 117.156 331.101 117.156C332.904 117.156 334.711 116.831 336.525 116.177L336.87 116.043C338.503 115.382 339.919 114.46 341.125 113.278V103.493H333.613ZM420.413 27.0156V46.5547H392.667V27.0156H420.413ZM377.143 133.586H346.056L345.894 133.38C345.312 132.642 344.699 131.7 344.054 130.56L343.776 130.059C343.193 128.992 342.743 127.92 342.425 126.845C340.3 129.118 337.956 130.955 335.39 132.347L334.818 132.647C331.715 134.231 327.808 135.006 323.124 135.006C315.54 135.006 309.266 133.098 304.342 129.243L303.871 128.864C298.863 124.743 296.361 119.244 296.361 112.421C296.361 107.755 297.726 103.604 300.458 99.9912L300.461 99.9873C303.247 96.371 307.379 93.5702 312.814 91.5615L313.333 91.3721C318.74 89.4409 325.406 88.4844 333.317 88.4844H341.125V84.6963C341.125 81.8883 340.256 79.5401 338.53 77.6182L338.526 77.6133C336.844 75.699 334.141 74.6866 330.289 74.6865C328.658 74.6865 327.13 74.8836 325.704 75.2754L325.693 75.2783C324.395 75.606 323.209 76.0881 322.129 76.7197L320.403 85.8105L320.32 86.25H301.098L301.088 85.7197L300.719 65.3652L300.712 64.9961L301.054 64.8564C305.605 62.9996 310.354 61.3921 315.298 60.0342H315.299L316.249 59.7861C321.028 58.5849 326.299 57.9863 332.061 57.9863C343.015 57.9863 351.781 60.3004 358.303 64.9854H358.302C364.858 69.6487 368.131 76.3335 368.131 84.9668V114.974C368.173 115.803 368.27 116.597 368.417 117.356L376.687 118.65L377.143 118.723V133.586ZM429.72 133.586H384.025V118.755L384.443 118.658L393.406 116.59V76.417L382.689 74.3379L382.252 74.2529V59.3389H420.413V116.591L429.302 118.658L429.72 118.755V133.586Z" fill="#35A7FF" stroke="black" stroke-width="1.07852"/>
<path d="M10.2793 54.0077L73.6529 34.5859" stroke="white" stroke-width="5.07473"/>
<path d="M9.61182 54.0078L74.3196 65.9115" stroke="white" stroke-width="5.07473"/>
<path d="M9.61182 108.514L74.3196 126.056" stroke="white" stroke-width="5.07473"/>
<path d="M9.61182 52.7539L73.6525 95.9831" stroke="white" stroke-width="5.07473"/>
<path d="M9.61182 108.01L73.6525 95.9938M9.61182 52.7539L73.6525 127.309" stroke="white" stroke-width="5.07473"/>
<path d="M10.2793 108.515L74.32 65.9121" stroke="white" stroke-width="5.07473"/>
<path d="M10.2793 108.514L73.6529 34.5859" stroke="white" stroke-width="5.07473"/>
<path d="M73.6553 35.8398L115.682 80.9485L73.6553 66.3944" stroke="white" stroke-width="5.07473"/>
<path d="M72.9888 95.9835L115.015 80.9473" stroke="white" stroke-width="5.07473"/>
<path d="M73.6553 127.309L115.015 80.9473" stroke="white" stroke-width="5.07473"/>
<path d="M66.4556 99.5532L60.4556 100.553L55.3898 101.553L68.7535 118.073L65.8898 121.891M65.8898 121.891L49.9556 103.053L19.9556 108.553L64.458 120.459L65.8898 121.891ZM65.4126 126.053L17.6851 112.823M67.7989 88.9589L55.8671 80.8452L68.2762 72.2542M65.4126 68.436L51.5716 77.5043L44.4125 72.7315L51.5716 64.1406L64.9353 66.5269M69.708 43.1405L55.3898 59.8451L65.8898 61.7542M77.3444 44.095L106.458 75.1179L83.0717 67.0042M80.6854 71.2997L106.458 80.3679L81.1626 89.9134M83.549 95.1634L105.981 87.0498L78.299 117.595M111.708 88.0043L82.1172 120.459M20.5487 53.1632L65.8898 39.3223L49.1852 58.8905L20.5487 53.1632ZM45.367 63.186L39.6397 69.8679L23.4124 58.8905L45.367 63.186ZM36.2988 73.6861L23.8896 65.0951L33.4351 77.027L36.2988 73.6861ZM40.5943 76.5497L37.2533 80.8452L40.5943 84.6634L46.7988 80.8452L40.5943 76.5497ZM51.5716 83.7088L43.4579 88.9589L51.0943 97.5498L64.9353 94.6862L65.4126 93.2543L51.5716 83.7088ZM33.4351 84.6634L23.8896 96.118L36.2988 88.0043L33.4351 84.6634Z" stroke="black" stroke-width="0.95455"/>
<path d="M13.8677 61.2773L30.5723 80.8456L14.345 99.9366M39.6405 91.3457L22.9359 102.8L45.8451 98.5048L39.6405 91.3457Z" stroke="black" stroke-width="0.95455"/>
<path d="M74.2329 27.2158C79.2458 27.2158 83.2582 31.025 83.2583 35.6621C83.2583 40.2994 79.2458 44.1094 74.2329 44.1094C69.22 44.1093 65.2085 40.2993 65.2085 35.6621C65.2086 31.025 69.2201 27.2159 74.2329 27.2158Z" fill="white" stroke="black" stroke-width="0.95455"/>
<path d="M81.6406 40.7539L111.709 73.2086" stroke="black" stroke-width="0.95455"/>
<path d="M74.5732 57.1611C79.609 57.1612 83.6395 60.9881 83.6396 65.6465C83.6396 70.305 79.6091 74.1317 74.5732 74.1318C69.5373 74.1318 65.5068 70.305 65.5068 65.6465C65.5069 60.988 69.5374 57.1611 74.5732 57.1611Z" fill="white" stroke="black" stroke-width="0.958934"/>
<path d="M74.5732 87.1045C79.609 87.1046 83.6395 90.9314 83.6396 95.5898C83.6396 100.248 79.6091 104.075 74.5732 104.075C69.5373 104.075 65.5068 100.248 65.5068 95.5898C65.5069 90.9314 69.5374 87.1045 74.5732 87.1045Z" fill="white" stroke="black" stroke-width="0.958934"/>
<path d="M116.743 72.3564C121.779 72.3565 125.809 76.1834 125.81 80.8418C125.81 85.5003 121.779 89.3271 116.743 89.3271C111.707 89.3271 107.677 85.5003 107.677 80.8418C107.677 76.1833 111.707 72.3564 116.743 72.3564Z" fill="white" stroke="black" stroke-width="0.958934"/>
<path d="M10.5298 99.4307C15.5656 99.4308 19.5961 103.258 19.5962 107.916C19.5962 112.575 15.5656 116.401 10.5298 116.401C5.49384 116.401 1.46338 112.575 1.46338 107.916C1.46349 103.258 5.49391 99.4307 10.5298 99.4307Z" fill="white" stroke="black" stroke-width="0.958934"/>
<path d="M10.5298 44.9229C15.5656 44.9229 19.5961 48.7498 19.5962 53.4082C19.5962 58.0667 15.5656 61.8935 10.5298 61.8936C5.49384 61.8936 1.46338 58.0667 1.46338 53.4082C1.46349 48.7497 5.49391 44.9229 10.5298 44.9229Z" fill="white" stroke="black" stroke-width="0.958934"/>
<path d="M74.5732 117.048C79.609 117.048 83.6395 120.875 83.6396 125.533C83.6396 130.192 79.6091 134.018 74.5732 134.019C69.5373 134.019 65.5068 130.192 65.5068 125.533C65.5069 120.875 69.5374 117.048 74.5732 117.048Z" fill="white" stroke="black" stroke-width="0.958934"/>
<path d="M18.2437 48.97L65.2314 34.5859" stroke="black" stroke-width="0.958934"/>
<path d="M74.5732 27.2178C79.609 27.2179 83.6395 31.0447 83.6396 35.7031C83.6396 40.3616 79.6091 44.1884 74.5732 44.1885C69.5373 44.1885 65.5068 40.3617 65.5068 35.7031C65.5069 31.0447 69.5374 27.2178 74.5732 27.2178Z" fill="white" stroke="black" stroke-width="0.958934"/>
</svg>
